<?xml version="1.0" encoding="UTF-8" standalone="no"?>
<svg width="528.814mm" height="63.5mm"
 xmlns="http://www.w3.org/2000/svg" xmlns:xlink="http://www.w3.org/1999/xlink"  version="1.2" baseProfile="tiny">
<title>Qt SVG Document</title>
<desc>Generated with Qt</desc>
<defs>
</defs>
<g fill="none" stroke="black" stroke-width="1" fill-rule="evenodd" stroke-linecap="square" stroke-linejoin="bevel" >

<g fill="none" stroke="#000000" stroke-opacity="1" stroke-width="1" stroke-linecap="square" stroke-linejoin="bevel" transform="matrix(1,0,0,1,0,0)"
font-family="Sans Serif" font-size="9" font-weight="400" font-style="normal" 
>
</g>

<g fill="none" stroke="#000000" stroke-opacity="1" stroke-width="1" stroke-linecap="square" stroke-linejoin="bevel" transform="matrix(1,0,0,1,0,0)"
font-family="Sans Serif" font-size="9" font-weight="400" font-style="normal" 
>
</g>

<g fill="none" stroke="#000000" stroke-opacity="1" stroke-width="1" stroke-linecap="square" stroke-linejoin="bevel" transform="matrix(2,0,0,2,-0.0096,180)"
font-family="Sans Serif" font-size="9" font-weight="400" font-style="normal" 
>
</g>

<g fill="#ffffff" fill-opacity="1" stroke="none" transform="matrix(2,0,0,2,-0.0096,180)"
font-family="Sans Serif" font-size="9" font-weight="400" font-style="normal" 
>
<rect x="0.0048" y="-90" width="749.455" height="90"/>
</g>

<g fill="none" stroke="#000000" stroke-opacity="1" stroke-width="1" stroke-linecap="square" stroke-linejoin="bevel" transform="matrix(2,0,0,2,-0.0096,180)"
font-family="Sans Serif" font-size="9" font-weight="400" font-style="normal" 
>
</g>

<g fill="none" stroke="#000000" stroke-opacity="1" stroke-width="1" stroke-linecap="square" stroke-linejoin="bevel" transform="matrix(2,0,0,2,-0.0096,180)"
font-family="Sans Serif" font-size="9" font-weight="400" font-style="normal" 
>
</g>

<g fill="none" stroke="#000000" stroke-opacity="1" stroke-width="1" stroke-linecap="square" stroke-linejoin="bevel" transform="matrix(2,0,0,2,-0.0096,180)"
font-family="Sans Serif" font-size="9" font-weight="400" font-style="normal" 
>
</g>

<g fill="none" stroke="#000000" stroke-opacity="1" stroke-width="1" stroke-linecap="square" stroke-linejoin="bevel" transform="matrix(2,0,0,2,-0.0096,180)"
font-family="Sans Serif" font-size="9" font-weight="400" font-style="normal" 
>
</g>

<g fill="none" stroke="#000000" stroke-opacity="1" stroke-width="1" stroke-linecap="square" stroke-linejoin="round" transform="matrix(2,0,0,2,-0.0096,180)"
font-family="Sans Serif" font-size="9" font-weight="400" font-style="normal" 
>
<rect x="344.67" y="-89.5" width="99.0008" height="35"/>
</g>

<g fill="none" stroke="#000000" stroke-opacity="1" stroke-width="1" stroke-linecap="square" stroke-linejoin="bevel" transform="matrix(2,0,0,2,-0.0096,180)"
font-family="Sans Serif" font-size="9" font-weight="400" font-style="normal" 
>
</g>

<g fill="none" stroke="#000000" stroke-opacity="1" stroke-width="1" stroke-linecap="square" stroke-linejoin="bevel" transform="matrix(2,0,0,2,722.877,22)"
font-family="Sans Serif" font-size="9" font-weight="400" font-style="normal" 
>
</g>

<g fill="none" stroke="#000000" stroke-opacity="1" stroke-width="1" stroke-linecap="square" stroke-linejoin="bevel" transform="matrix(2,0,0,2,722.877,22)"
font-family="sans" font-size="11" font-weight="100" font-style="normal" 
>
</g>

<g fill="#000000" fill-opacity="1" stroke="#000000" stroke-opacity="1" stroke-width="1" stroke-linecap="square" stroke-linejoin="round" transform="matrix(2,0,0,2,722.877,22)"
font-family="sans" font-size="11" font-weight="100" font-style="normal" 
>
<path vector-effect="none" fill-rule="nonzero" d="M2.96875,2.98438 L3.53125,2.98438 L0.734375,12.0156 L0.171875,12.0156 L2.96875,2.98438 M4.40625,4.98438 L4.90625,4.98438 L6.32813,10.3438 L7.71875,4.98438 L8.35938,4.98438 L9.76563,10.375 L11.1719,4.98438 L11.6875,4.98438 L10.1094,11 L9.42188,11 L8.03125,5.71875 L6.65625,11 L5.98438,11 L4.40625,4.98438 M18.4844,7.375 L18.4844,11 L17.9844,11 L17.9844,7.40625 C17.9844,6.625 17.8542,6.07552 17.5938,5.75781 C17.3333,5.4401 16.9375,5.28125 16.4063,5.28125 C15.7917,5.28125 15.3073,5.45833 14.9531,5.8125 C14.599,6.16667 14.4219,6.76042 14.4219,7.59375 L14.4219,11 L13.9375,11 L13.9375,2.64063 L14.4219,2.64063 L14.4219,6.09375 C14.5365,5.79167 14.7448,5.52083 15.0469,5.28125 C15.3906,4.98958 15.8802,4.84375 16.5156,4.84375 C17.1198,4.84375 17.599,5.05729 17.9531,5.48438 C18.3073,5.91146 18.4844,6.54167 18.4844,7.375 M25.5938,7.75 L25.5938,8.0625 L21.0313,8.0625 C21.0313,9.02083 21.2188,9.69792 21.5938,10.0938 C22.0104,10.5208 22.625,10.7344 23.4375,10.7344 C23.6563,10.7344 23.9427,10.6875 24.2969,10.5938 C24.651,10.5 25.0052,10.3594 25.3594,10.1719 L25.3594,10.6875 C25.0052,10.8438 24.6432,10.9609 24.2734,11.0391 C23.9036,11.1172 23.6094,11.1563 23.3906,11.1563 C22.4635,11.1563 21.7656,10.9063 21.2969,10.4063 C20.7865,9.875 20.5313,9.09375 20.5313,8.0625 C20.5313,6.98958 20.7604,6.1875 21.2188,5.65625 C21.6979,5.11458 22.3646,4.84375 23.2188,4.84375 C24,4.84375 24.5938,5.10417 25,5.625 C25.3958,6.16667 25.5938,6.875 25.5938,7.75 M25.0938,7.64063 C25.0938,6.79688 24.901,6.18229 24.5156,5.79688 C24.2031,5.45313 23.7708,5.28125 23.2188,5.28125 C22.625,5.28125 22.125,5.45833 21.7188,5.8125 C21.3438,6.14583 21.1198,6.75521 21.0469,7.64063 L25.0938,7.64063 M32.3594,7.75 L32.3594,8.0625 L27.7969,8.0625 C27.7969,9.02083 27.9844,9.69792 28.3594,10.0938 C28.776,10.5208 29.3906,10.7344 30.2031,10.7344 C30.4219,10.7344 30.7083,10.6875 31.0625,10.5938 C31.4167,10.5 31.7708,10.3594 32.125,10.1719 L32.125,10.6875 C31.7708,10.8438 31.4089,10.9609 31.0391,11.0391 C30.6693,11.1172 30.375,11.1563 30.1563,11.1563 C29.2292,11.1563 28.5313,10.9063 28.0625,10.4063 C27.5521,9.875 27.2969,9.09375 27.2969,8.0625 C27.2969,6.98958 27.526,6.1875 27.9844,5.65625 C28.4635,5.11458 29.1302,4.84375 29.9844,4.84375 C30.7656,4.84375 31.3594,5.10417 31.7656,5.625 C32.1615,6.16667 32.3594,6.875 32.3594,7.75 M31.8594,7.64063 C31.8594,6.79688 31.6667,6.18229 31.2813,5.79688 C30.9688,5.45313 30.5365,5.28125 29.9844,5.28125 C29.3906,5.28125 28.8906,5.45833 28.4844,5.8125 C28.1094,6.14583 27.8854,6.75521 27.8125,7.64063 L31.8594,7.64063 M34.4375,2.64063 L34.9219,2.64063 L34.9219,11 L34.4375,11 L34.4375,2.64063 M41.8438,13.1719 L41.8438,13.5938 L36.125,13.5938 L36.125,13.1719 L41.8438,13.1719 M47.0938,5.28125 L47.0938,5.79688 C46.8021,5.61979 46.5573,5.5 46.3594,5.4375 C46.026,5.33333 45.7083,5.28125 45.4063,5.28125 C44.5417,5.28125 43.9219,5.5026 43.5469,5.94531 C43.1719,6.38802 42.9844,7.07292 42.9844,8 C42.9844,8.9375 43.1719,9.6276 43.5469,10.0703 C43.9219,10.513 44.5417,10.7344 45.4063,10.7344 C45.6979,10.7344 45.9792,10.6927 46.25,10.6094 C46.5417,10.5365 46.8229,10.4219 47.0938,10.2656 L47.0938,10.7656 C46.8229,10.901 46.5417,11 46.25,11.0625 C45.9479,11.125 45.651,11.1563 45.3594,11.1563 C44.4844,11.1563 43.7865,10.9167 43.2656,10.4375 C42.7448,9.95833 42.4844,9.14323 42.4844,7.99219 C42.4844,6.84115 42.7448,6.02604 43.2656,5.54688 C43.7865,5.07813 44.4844,4.84375 45.3594,4.84375 C45.651,4.84375 45.9583,4.88542 46.2813,4.96875 C46.6042,5.04167 46.875,5.14583 47.0938,5.28125 M53.3594,6.29688 C53.5469,5.80729 53.8385,5.44271 54.2344,5.20313 C54.6198,4.96354 55.0729,4.84375 55.5938,4.84375 C56.1146,4.84375 56.5313,5.02604 56.8438,5.39063 C57.1667,5.75521 57.3281,6.41667 57.3281,7.375 L57.3281,11 L56.8438,11 L56.8438,7.40625 C56.8438,6.57292 56.7292,6.01042 56.5,5.71875 C56.2708,5.42708 55.9635,5.28125 55.5781,5.28125 C55.026,5.28125 54.5417,5.44792 54.125,5.78125 C53.6563,6.15625 53.4219,6.76042 53.4219,7.59375 L53.4219,11 L52.9375,11 L52.9375,7.40625 C52.9375,6.60417 52.8255,6.04948 52.6016,5.74219 C52.3776,5.4349 52.0677,5.28125 51.6719,5.28125 C51.1198,5.28125 50.6354,5.45313 50.2188,5.79688 C49.75,6.16146 49.5156,6.76042 49.5156,7.59375 L49.5156,11 L49.0313,11 L49.0313,4.98438 L49.5156,4.98438 L49.5156,6.10938 C49.6927,5.71354 49.9688,5.40104 50.3438,5.17188 C50.7083,4.95313 51.1615,4.84375 51.7031,4.84375 C52.0573,4.84375 52.3958,4.95833 52.7188,5.1875 C52.9688,5.375 53.1823,5.74479 53.3594,6.29688 M63.7344,6.35938 L63.7344,2.64063 L64.2031,2.64063 L64.2031,11 L63.7344,11 L63.7344,9.64063 C63.5052,10.1615 63.2552,10.5156 62.9844,10.7031 C62.5885,11.0052 62.2083,11.1563 61.8438,11.1563 C61.1354,11.1563 60.5443,10.8672 60.0703,10.2891 C59.5964,9.71094 59.3594,8.94792 59.3594,8 C59.3594,7.05208 59.5964,6.28906 60.0703,5.71094 C60.5443,5.13281 61.1354,4.84375 61.8438,4.84375 C62.2083,4.84375 62.5885,4.98958 62.9844,5.28125 C63.2552,5.47917 63.5052,5.83854 63.7344,6.35938 M60.5,5.90625 C60.0833,6.32292 59.875,7.02083 59.875,8 C59.875,8.97917 60.0833,9.67708 60.5,10.0938 C60.9167,10.5104 61.3542,10.7188 61.8125,10.7188 C62.2604,10.7188 62.6927,10.5104 63.1094,10.0938 C63.5156,9.67708 63.7188,8.97917 63.7188,8 C63.7188,7.02083 63.5156,6.32292 63.1094,5.90625 C62.6927,5.48958 62.2604,5.28125 61.8125,5.28125 C61.3542,5.28125 60.9167,5.48958 60.5,5.90625 "/>
</g>

<g fill="none" stroke="#000000" stroke-opacity="1" stroke-width="1" stroke-linecap="square" stroke-linejoin="bevel" transform="matrix(2,0,0,2,722.877,22)"
font-family="sans" font-size="11" font-weight="100" font-style="normal" 
>
</g>

<g fill="none" stroke="#000000" stroke-opacity="1" stroke-width="1" stroke-linecap="square" stroke-linejoin="bevel" transform="matrix(2,0,0,2,722.877,22)"
font-family="Sans Serif" font-size="9" font-weight="400" font-style="normal" 
>
</g>

<g fill="none" stroke="#000000" stroke-opacity="1" stroke-width="1" stroke-linecap="square" stroke-linejoin="bevel" transform="matrix(2,0,0,2,-0.0096,180)"
font-family="Sans Serif" font-size="9" font-weight="400" font-style="normal" 
>
</g>

<g fill="none" stroke="#000000" stroke-opacity="1" stroke-width="1" stroke-linecap="square" stroke-linejoin="bevel" transform="matrix(2,0,0,2,-0.0096,180)"
font-family="Sans Serif" font-size="9" font-weight="400" font-style="normal" 
>
</g>

<g fill="none" stroke="#000000" stroke-opacity="1" stroke-width="1" stroke-linecap="square" stroke-linejoin="bevel" transform="matrix(2,0,0,2,-0.0096,180)"
font-family="Sans Serif" font-size="9" font-weight="400" font-style="normal" 
>
</g>

<g fill="none" stroke="#000000" stroke-opacity="1" stroke-width="1" stroke-linecap="square" stroke-linejoin="round" transform="matrix(2,0,0,2,-0.0096,180)"
font-family="Sans Serif" font-size="9" font-weight="400" font-style="normal" 
>
<ellipse cx="543.31" cy="-45" rx="84.6436" ry="17.5"/>
</g>

<g fill="none" stroke="#000000" stroke-opacity="1" stroke-width="1" stroke-linecap="square" stroke-linejoin="bevel" transform="matrix(2,0,0,2,-0.0096,180)"
font-family="Sans Serif" font-size="9" font-weight="400" font-style="normal" 
>
</g>

<g fill="none" stroke="#000000" stroke-opacity="1" stroke-width="1" stroke-linecap="square" stroke-linejoin="bevel" transform="matrix(2,0,0,2,998.454,76)"
font-family="Sans Serif" font-size="9" font-weight="400" font-style="normal" 
>
</g>

<g fill="none" stroke="#000000" stroke-opacity="1" stroke-width="1" stroke-linecap="square" stroke-linejoin="bevel" transform="matrix(2,0,0,2,998.454,76)"
font-family="sans" font-size="11" font-weight="100" font-style="normal" 
>
</g>

<g fill="#000000" fill-opacity="1" stroke="#000000" stroke-opacity="1" stroke-width="1" stroke-linecap="square" stroke-linejoin="round" transform="matrix(2,0,0,2,998.454,76)"
font-family="sans" font-size="11" font-weight="100" font-style="normal" 
>
<path vector-effect="none" fill-rule="nonzero" d="M2.96875,2.98438 L3.53125,2.98438 L0.734375,12.0156 L0.171875,12.0156 L2.96875,2.98438 M5.46875,3.28125 L5.46875,4.98438 L7.5,4.98438 L7.5,5.40625 L5.46875,5.40625 L5.46875,9.01563 C5.46875,9.47396 5.52604,9.79688 5.64063,9.98438 C5.89063,10.3802 6.25,10.5781 6.71875,10.5781 L7.5,10.5781 L7.5,11 L6.73438,11 C6.24479,11 5.82813,10.8568 5.48438,10.5703 C5.14063,10.2839 4.96875,9.76563 4.96875,9.01563 L4.96875,5.40625 L4.25,5.40625 L4.25,4.98438 L4.96875,4.98438 L4.96875,3.28125 L5.46875,3.28125 M9.20313,8.60938 L9.20313,4.98438 L9.6875,4.98438 L9.6875,8.57813 C9.6875,9.35938 9.8125,9.90885 10.0625,10.2266 C10.3125,10.5443 10.6823,10.7031 11.1719,10.7031 C11.7448,10.7031 12.2344,10.5313 12.6406,10.1875 C13.0469,9.84375 13.25,9.24479 13.25,8.39063 L13.25,4.98438 L13.7344,4.98438 L13.7344,11 L13.25,11 L13.25,9.875 C13.0729,10.2396 12.8385,10.5156 12.5469,10.7031 C12.1302,10.9948 11.6667,11.1406 11.1563,11.1406 C10.5625,11.1406 10.0885,10.9375 9.73438,10.5313 C9.38021,10.1354 9.20313,9.49479 9.20313,8.60938 M19.5,5.40625 C19.4167,5.36458 19.3073,5.33333 19.1719,5.3125 C19.0469,5.29167 18.8958,5.28125 18.7188,5.28125 C18.1042,5.28125 17.599,5.50521 17.2031,5.95313 C16.8802,6.31771 16.7188,6.94271 16.7188,7.82813 L16.7188,11 L16.2344,11 L16.2344,4.98438 L16.7188,4.98438 L16.7188,6.10938 C16.8854,5.78646 17.1146,5.51563 17.4063,5.29688 C17.8021,4.99479 18.2708,4.84375 18.8125,4.84375 C18.9583,4.84375 19.0833,4.84896 19.1875,4.85938 C19.2917,4.85938 19.3958,4.86979 19.5,4.89063 L19.5,5.40625 M21.2656,3.28125 L21.2656,4.98438 L23.2969,4.98438 L23.2969,5.40625 L21.2656,5.40625 L21.2656,9.01563 C21.2656,9.47396 21.3229,9.79688 21.4375,9.98438 C21.6875,10.3802 22.0469,10.5781 22.5156,10.5781 L23.2969,10.5781 L23.2969,11 L22.5313,11 C22.0417,11 21.625,10.8568 21.2813,10.5703 C20.9375,10.2839 20.7656,9.76563 20.7656,9.01563 L20.7656,5.40625 L20.0469,5.40625 L20.0469,4.98438 L20.7656,4.98438 L20.7656,3.28125 L21.2656,3.28125 M25.0625,2.64063 L25.5469,2.64063 L25.5469,11 L25.0625,11 L25.0625,2.64063 M32.7969,7.75 L32.7969,8.0625 L28.2344,8.0625 C28.2344,9.02083 28.4219,9.69792 28.7969,10.0938 C29.2135,10.5208 29.8281,10.7344 30.6406,10.7344 C30.8594,10.7344 31.1458,10.6875 31.5,10.5938 C31.8542,10.5 32.2083,10.3594 32.5625,10.1719 L32.5625,10.6875 C32.2083,10.8438 31.8464,10.9609 31.4766,11.0391 C31.1068,11.1172 30.8125,11.1563 30.5938,11.1563 C29.6667,11.1563 28.9688,10.9063 28.5,10.4063 C27.9896,9.875 27.7344,9.09375 27.7344,8.0625 C27.7344,6.98958 27.9635,6.1875 28.4219,5.65625 C28.901,5.11458 29.5677,4.84375 30.4219,4.84375 C31.2031,4.84375 31.7969,5.10417 32.2031,5.625 C32.599,6.16667 32.7969,6.875 32.7969,7.75 M32.2969,7.64063 C32.2969,6.79688 32.1042,6.18229 31.7188,5.79688 C31.4063,5.45313 30.974,5.28125 30.4219,5.28125 C29.8281,5.28125 29.3281,5.45833 28.9219,5.8125 C28.5469,6.14583 28.3229,6.75521 28.25,7.64063 L32.2969,7.64063 M38.5938,10.0938 C39.0104,9.67708 39.2188,8.97917 39.2188,8 C39.2188,7.02083 39.0104,6.32292 38.5938,5.90625 C38.1771,5.48958 37.7396,5.28125 37.2813,5.28125 C36.8333,5.28125 36.401,5.48958 35.9844,5.90625 C35.5781,6.32292 35.375,7.02083 35.375,8 C35.375,8.97917 35.5781,9.67708 35.9844,10.0938 C36.401,10.5104 36.8333,10.7188 37.2813,10.7188 C37.7396,10.7188 38.1771,10.5104 38.5938,10.0938 M35.3594,6.35938 C35.5885,5.83854 35.8333,5.47917 36.0938,5.28125 C36.5,4.98958 36.8854,4.84375 37.25,4.84375 C37.9583,4.84375 38.5495,5.13281 39.0234,5.71094 C39.4974,6.28906 39.7344,7.05208 39.7344,8 C39.7344,8.94792 39.4974,9.71094 39.0234,10.2891 C38.5495,10.8672 37.9583,11.1563 37.25,11.1563 C36.8854,11.1563 36.5,11.0052 36.0938,10.7031 C35.8333,10.5156 35.5885,10.1615 35.3594,9.64063 L35.3594,11 L34.875,11 L34.875,2.64063 L35.3594,2.64063 L35.3594,6.35938 M45.4219,6.01563 C45.0677,5.52604 44.5833,5.28125 43.9688,5.28125 C43.3542,5.28125 42.8698,5.52604 42.5156,6.01563 C42.1615,6.49479 41.9844,7.15104 41.9844,7.98438 C41.9844,8.83854 42.1615,9.51042 42.5156,10 C42.8698,10.4896 43.3542,10.7344 43.9688,10.7344 C44.5833,10.7344 45.0677,10.4896 45.4219,10 C45.776,9.5 45.9531,8.82813 45.9531,7.98438 C45.9531,7.16146 45.776,6.50521 45.4219,6.01563 M43.9688,4.84375 C44.7292,4.84375 45.3333,5.13021 45.7813,5.70313 C46.2292,6.27604 46.4531,7.03646 46.4531,7.98438 C46.4531,8.97396 46.2292,9.75521 45.7813,10.3281 C45.3333,10.901 44.7292,11.1875 43.9688,11.1875 C43.1875,11.1875 42.5729,10.901 42.125,10.3281 C41.6875,9.75521 41.4688,8.97396 41.4688,7.98438 C41.4688,7.02604 41.6927,6.26302 42.1406,5.69531 C42.5885,5.1276 43.1979,4.84375 43.9688,4.84375 M49.0781,3.28125 L49.0781,4.98438 L51.1094,4.98438 L51.1094,5.40625 L49.0781,5.40625 L49.0781,9.01563 C49.0781,9.47396 49.1354,9.79688 49.25,9.98438 C49.5,10.3802 49.8594,10.5781 50.3281,10.5781 L51.1094,10.5781 L51.1094,11 L50.3438,11 C49.8542,11 49.4375,10.8568 49.0938,10.5703 C48.75,10.2839 48.5781,9.76563 48.5781,9.01563 L48.5781,5.40625 L47.8594,5.40625 L47.8594,4.98438 L48.5781,4.98438 L48.5781,3.28125 L49.0781,3.28125 M56.0938,6.67188 C56.5208,6.77604 56.8594,7.01042 57.1094,7.375 C57.349,7.71875 57.4688,8.15104 57.4688,8.67188 C57.4688,9.46354 57.2422,10.0755 56.7891,10.5078 C56.3359,10.9401 55.6094,11.1563 54.6094,11.1563 C54.2656,11.1563 53.9167,11.1042 53.5625,11 C53.2083,10.8958 52.8438,10.7292 52.4688,10.5 L52.4688,9.92188 C52.7708,10.1823 53.099,10.3802 53.4531,10.5156 C53.8073,10.651 54.1719,10.7188 54.5469,10.7188 C55.3177,10.7188 55.9063,10.5417 56.3125,10.1875 C56.7188,9.84375 56.9219,9.33854 56.9219,8.67188 C56.9219,8.13021 56.7344,7.70313 56.3594,7.39063 C55.9844,7.08854 55.4583,6.9375 54.7813,6.9375 L53.8438,6.9375 L53.8438,6.48438 L54.8281,6.48438 C55.4427,6.48438 55.9167,6.35938 56.25,6.10938 C56.5729,5.85938 56.7344,5.5 56.7344,5.03125 C56.7344,4.46875 56.5677,4.03646 56.2344,3.73438 C55.8906,3.43229 55.4063,3.28125 54.7813,3.28125 C54.4896,3.28125 54.1719,3.33333 53.8281,3.4375 C53.4844,3.54167 53.1094,3.70313 52.7031,3.92188 L52.7031,3.375 C53.1198,3.19792 53.5052,3.06771 53.8594,2.98438 C54.224,2.89063 54.5625,2.83854 54.875,2.82813 C55.6979,2.82813 56.3073,3.01563 56.7031,3.39063 C57.0885,3.76563 57.2813,4.27604 57.2813,4.92188 C57.2813,5.33854 57.1771,5.70833 56.9688,6.03125 C56.7708,6.34375 56.4792,6.55729 56.0938,6.67188 M64.2188,13.1719 L64.2188,13.5938 L58.5,13.5938 L58.5,13.1719 L64.2188,13.1719 M69.4688,5.28125 L69.4688,5.79688 C69.1771,5.61979 68.9323,5.5 68.7344,5.4375 C68.401,5.33333 68.0833,5.28125 67.7813,5.28125 C66.9167,5.28125 66.2969,5.5026 65.9219,5.94531 C65.5469,6.38802 65.3594,7.07292 65.3594,8 C65.3594,8.9375 65.5469,9.6276 65.9219,10.0703 C66.2969,10.513 66.9167,10.7344 67.7813,10.7344 C68.0729,10.7344 68.3542,10.6927 68.625,10.6094 C68.9167,10.5365 69.1979,10.4219 69.4688,10.2656 L69.4688,10.7656 C69.1979,10.901 68.9167,11 68.625,11.0625 C68.3229,11.125 68.026,11.1563 67.7344,11.1563 C66.8594,11.1563 66.1615,10.9167 65.6406,10.4375 C65.1198,9.95833 64.8594,9.14323 64.8594,7.99219 C64.8594,6.84115 65.1198,6.02604 65.6406,5.54688 C66.1615,5.07813 66.8594,4.84375 67.7344,4.84375 C68.026,4.84375 68.3333,4.88542 68.6563,4.96875 C68.9792,5.04167 69.25,5.14583 69.4688,5.28125 M74.9844,6.01563 C74.6302,5.52604 74.1458,5.28125 73.5313,5.28125 C72.9167,5.28125 72.4323,5.52604 72.0781,6.01563 C71.724,6.49479 71.5469,7.15104 71.5469,7.98438 C71.5469,8.83854 71.724,9.51042 72.0781,10 C72.4323,10.4896 72.9167,10.7344 73.5313,10.7344 C74.1458,10.7344 74.6302,10.4896 74.9844,10 C75.3385,9.5 75.5156,8.82813 75.5156,7.98438 C75.5156,7.16146 75.3385,6.50521 74.9844,6.01563 M73.5313,4.84375 C74.2917,4.84375 74.8958,5.13021 75.3438,5.70313 C75.7917,6.27604 76.0156,7.03646 76.0156,7.98438 C76.0156,8.97396 75.7917,9.75521 75.3438,10.3281 C74.8958,10.901 74.2917,11.1875 73.5313,11.1875 C72.75,11.1875 72.1354,10.901 71.6875,10.3281 C71.25,9.75521 71.0313,8.97396 71.0313,7.98438 C71.0313,7.02604 71.2552,6.26302 71.7031,5.69531 C72.151,5.1276 72.7604,4.84375 73.5313,4.84375 M81.3906,5.40625 C81.3073,5.36458 81.1979,5.33333 81.0625,5.3125 C80.9375,5.29167 80.7865,5.28125 80.6094,5.28125 C79.9948,5.28125 79.4896,5.50521 79.0938,5.95313 C78.7708,6.31771 78.6094,6.94271 78.6094,7.82813 L78.6094,11 L78.125,11 L78.125,4.98438 L78.6094,4.98438 L78.6094,6.10938 C78.776,5.78646 79.0052,5.51563 79.2969,5.29688 C79.6927,4.99479 80.1615,4.84375 80.7031,4.84375 C80.849,4.84375 80.974,4.84896 81.0781,4.85938 C81.1823,4.85938 81.2865,4.86979 81.3906,4.89063 L81.3906,5.40625 M87.3281,7.75 L87.3281,8.0625 L82.7656,8.0625 C82.7656,9.02083 82.9531,9.69792 83.3281,10.0938 C83.7448,10.5208 84.3594,10.7344 85.1719,10.7344 C85.3906,10.7344 85.6771,10.6875 86.0313,10.5938 C86.3854,10.5 86.7396,10.3594 87.0938,10.1719 L87.0938,10.6875 C86.7396,10.8438 86.3776,10.9609 86.0078,11.0391 C85.638,11.1172 85.3438,11.1563 85.125,11.1563 C84.1979,11.1563 83.5,10.9063 83.0313,10.4063 C82.5208,9.875 82.2656,9.09375 82.2656,8.0625 C82.2656,6.98958 82.4948,6.1875 82.9531,5.65625 C83.4323,5.11458 84.099,4.84375 84.9531,4.84375 C85.7344,4.84375 86.3281,5.10417 86.7344,5.625 C87.1302,6.16667 87.3281,6.875 87.3281,7.75 M86.8281,7.64063 C86.8281,6.79688 86.6354,6.18229 86.25,5.79688 C85.9375,5.45313 85.5052,5.28125 84.9531,5.28125 C84.3594,5.28125 83.8594,5.45833 83.4531,5.8125 C83.0781,6.14583 82.8542,6.75521 82.7813,7.64063 L86.8281,7.64063"/>
</g>

<g fill="none" stroke="#000000" stroke-opacity="1" stroke-width="1" stroke-linecap="square" stroke-linejoin="bevel" transform="matrix(2,0,0,2,998.454,76)"
font-family="sans" font-size="11" font-weight="100" font-style="normal" 
>
</g>

<g fill="none" stroke="#000000" stroke-opacity="1" stroke-width="1" stroke-linecap="square" stroke-linejoin="bevel" transform="matrix(2,0,0,2,998.454,76)"
font-family="Sans Serif" font-size="9" font-weight="400" font-style="normal" 
>
</g>

<g fill="none" stroke="#000000" stroke-opacity="1" stroke-width="1" stroke-linecap="square" stroke-linejoin="bevel" transform="matrix(2,0,0,2,-0.0096,180)"
font-family="Sans Serif" font-size="9" font-weight="400" font-style="normal" 
>
</g>

<g fill="none" stroke="#000000" stroke-opacity="1" stroke-width="1" stroke-linecap="square" stroke-linejoin="bevel" transform="matrix(2,0,0,2,-0.0096,180)"
font-family="Sans Serif" font-size="9" font-weight="400" font-style="normal" 
>
</g>

<g fill="none" stroke="#000000" stroke-opacity="1" stroke-width="1" stroke-linecap="square" stroke-linejoin="bevel" transform="matrix(2,0,0,2,-0.0096,180)"
font-family="Sans Serif" font-size="9" font-weight="400" font-style="normal" 
>
</g>

<g fill="none" stroke="#000000" stroke-opacity="1" stroke-width="1" stroke-linecap="square" stroke-linejoin="round" transform="matrix(2,0,0,2,-0.0096,180)"
font-family="Sans Serif" font-size="9" font-weight="400" font-style="normal" 
>
<rect x="645.459" y="-89.5" width="101.002" height="35"/>
</g>

<g fill="none" stroke="#000000" stroke-opacity="1" stroke-width="1" stroke-linecap="square" stroke-linejoin="bevel" transform="matrix(2,0,0,2,-0.0096,180)"
font-family="Sans Serif" font-size="9" font-weight="400" font-style="normal" 
>
</g>

<g fill="none" stroke="#000000" stroke-opacity="1" stroke-width="1" stroke-linecap="square" stroke-linejoin="bevel" transform="matrix(2,0,0,2,1326.33,22)"
font-family="Sans Serif" font-size="9" font-weight="400" font-style="normal" 
>
</g>

<g fill="none" stroke="#000000" stroke-opacity="1" stroke-width="1" stroke-linecap="square" stroke-linejoin="bevel" transform="matrix(2,0,0,2,1326.33,22)"
font-family="sans" font-size="11" font-weight="100" font-style="normal" 
>
</g>

<g fill="#000000" fill-opacity="1" stroke="#000000" stroke-opacity="1" stroke-width="1" stroke-linecap="square" stroke-linejoin="round" transform="matrix(2,0,0,2,1326.33,22)"
font-family="sans" font-size="11" font-weight="100" font-style="normal" 
>
<path vector-effect="none" fill-rule="nonzero" d="M2.96875,2.98438 L3.53125,2.98438 L0.734375,12.0156 L0.171875,12.0156 L2.96875,2.98438 M8.95313,6.35938 L8.95313,2.64063 L9.42188,2.64063 L9.42188,11 L8.95313,11 L8.95313,9.64063 C8.72396,10.1615 8.47396,10.5156 8.20313,10.7031 C7.80729,11.0052 7.42708,11.1563 7.0625,11.1563 C6.35417,11.1563 5.76302,10.8672 5.28906,10.2891 C4.8151,9.71094 4.57813,8.94792 4.57813,8 C4.57813,7.05208 4.8151,6.28906 5.28906,5.71094 C5.76302,5.13281 6.35417,4.84375 7.0625,4.84375 C7.42708,4.84375 7.80729,4.98958 8.20313,5.28125 C8.47396,5.47917 8.72396,5.83854 8.95313,6.35938 M5.71875,5.90625 C5.30208,6.32292 5.09375,7.02083 5.09375,8 C5.09375,8.97917 5.30208,9.67708 5.71875,10.0938 C6.13542,10.5104 6.57292,10.7188 7.03125,10.7188 C7.47917,10.7188 7.91146,10.5104 8.32813,10.0938 C8.73438,9.67708 8.9375,8.97917 8.9375,8 C8.9375,7.02083 8.73438,6.32292 8.32813,5.90625 C7.91146,5.48958 7.47917,5.28125 7.03125,5.28125 C6.57292,5.28125 6.13542,5.48958 5.71875,5.90625 M11.9063,4.98438 L12.4063,4.98438 L12.4063,11 L11.9063,11 L11.9063,4.98438 M11.9063,2.64063 L12.4063,2.64063 L12.4063,3.3125 L11.9063,3.3125 L11.9063,2.64063 M17.375,7.60938 C16.5729,7.60938 15.9974,7.75 15.6484,8.03125 C15.2995,8.3125 15.125,8.72396 15.125,9.26563 C15.125,9.79688 15.2708,10.1745 15.5625,10.3984 C15.8542,10.6224 16.1979,10.7344 16.5938,10.7344 C17.3438,10.7344 17.8854,10.4167 18.2188,9.78125 C18.5521,9.13542 18.7188,8.53125 18.7188,7.96875 L18.7188,7.60938 L17.375,7.60938 M19.2188,7.5625 L19.2188,11 L18.7188,11 L18.7188,9.35938 C18.4479,10.1615 18.0833,10.6719 17.625,10.8906 C17.2708,11.0677 16.9115,11.1563 16.5469,11.1563 C15.9531,11.1563 15.4844,10.9948 15.1406,10.6719 C14.7969,10.349 14.625,9.8776 14.625,9.25781 C14.625,8.63802 14.849,8.14063 15.2969,7.76563 C15.7448,7.39063 16.474,7.20313 17.4844,7.20313 L18.7188,7.20313 L18.7188,7.10938 C18.7188,6.57813 18.5625,6.14063 18.25,5.79688 C17.9583,5.45313 17.4635,5.28125 16.7656,5.28125 C16.4219,5.28125 16.0729,5.34375 15.7188,5.46875 C15.4896,5.55208 15.1875,5.71875 14.8125,5.96875 L14.8125,5.4375 C15.1354,5.23958 15.4375,5.09896 15.7188,5.01563 C16.1146,4.90104 16.4948,4.84375 16.8594,4.84375 C17.5781,4.84375 18.1667,5.05729 18.625,5.48438 C19.0208,5.84896 19.2188,6.54167 19.2188,7.5625 M25.7031,7.92188 C25.7031,7.08854 25.5339,6.44271 25.1953,5.98438 C24.8568,5.52604 24.3802,5.29688 23.7656,5.29688 C23.1615,5.29688 22.6901,5.52604 22.3516,5.98438 C22.013,6.44271 21.8438,7.08854 21.8438,7.92188 C21.8438,8.75521 22.013,9.40104 22.3516,9.85938 C22.6901,10.3177 23.1615,10.5469 23.7656,10.5469 C24.3802,10.5469 24.8568,10.3177 25.1953,9.85938 C25.5339,9.40104 25.7031,8.75521 25.7031,7.92188 M26.1875,10.25 C26.1875,11.5 25.9505,12.3177 25.4766,12.7031 C25.0026,13.0885 24.401,13.2813 23.6719,13.2813 C23.3177,13.2813 22.9896,13.2604 22.6875,13.2188 C22.375,13.1563 22.0729,13.0729 21.7813,12.9688 L21.7813,12.4063 C22.0729,12.5625 22.3594,12.6797 22.6406,12.7578 C22.9219,12.8359 23.2135,12.875 23.5156,12.875 C24.1094,12.875 24.6224,12.7474 25.0547,12.4922 C25.487,12.237 25.7031,11.5521 25.7031,10.4375 L25.7031,9.48438 C25.5469,9.90104 25.3438,10.2292 25.0938,10.4688 C24.6979,10.8229 24.2552,11 23.7656,11 C23.0052,11 22.4115,10.7318 21.9844,10.1953 C21.5573,9.65885 21.3438,8.90104 21.3438,7.92188 C21.3438,6.94271 21.5573,6.1849 21.9844,5.64844 C22.4115,5.11198 23.0052,4.84375 23.7656,4.84375 C24.2552,4.84375 24.6719,4.99479 25.0156,5.29688 C25.2865,5.53646 25.5156,5.85938 25.7031,6.26563 L25.7031,4.98438 L26.1875,4.98438 L26.1875,10.25 M32.8438,7.375 L32.8438,11 L32.3438,11 L32.3438,7.40625 C32.3438,6.625 32.2188,6.07552 31.9688,5.75781 C31.7188,5.4401 31.349,5.28125 30.8594,5.28125 C30.2865,5.28125 29.8021,5.45313 29.4063,5.79688 C28.9896,6.14063 28.7813,6.73958 28.7813,7.59375 L28.7813,11 L28.2969,11 L28.2969,4.98438 L28.7813,4.98438 L28.7813,6.10938 C28.9583,5.74479 29.1927,5.46875 29.4844,5.28125 C29.901,4.98958 30.3646,4.84375 30.875,4.84375 C31.4792,4.84375 31.9583,5.04688 32.3125,5.45313 C32.6667,5.84896 32.8438,6.48958 32.8438,7.375 M38.8438,6.01563 C38.4896,5.52604 38.0052,5.28125 37.3906,5.28125 C36.776,5.28125 36.2917,5.52604 35.9375,6.01563 C35.5833,6.49479 35.4063,7.15104 35.4063,7.98438 C35.4063,8.83854 35.5833,9.51042 35.9375,10 C36.2917,10.4896 36.776,10.7344 37.3906,10.7344 C38.0052,10.7344 38.4896,10.4896 38.8438,10 C39.1979,9.5 39.375,8.82813 39.375,7.98438 C39.375,7.16146 39.1979,6.50521 38.8438,6.01563 M37.3906,4.84375 C38.151,4.84375 38.7552,5.13021 39.2031,5.70313 C39.651,6.27604 39.875,7.03646 39.875,7.98438 C39.875,8.97396 39.651,9.75521 39.2031,10.3281 C38.7552,10.901 38.151,11.1875 37.3906,11.1875 C36.6094,11.1875 35.9948,10.901 35.5469,10.3281 C35.1094,9.75521 34.8906,8.97396 34.8906,7.98438 C34.8906,7.02604 35.1146,6.26302 35.5625,5.69531 C36.0104,5.1276 36.6198,4.84375 37.3906,4.84375 M45.3906,5.15625 L45.3906,5.70313 C45.0365,5.50521 44.8177,5.39583 44.7344,5.375 C44.4844,5.32292 44.1719,5.29167 43.7969,5.28125 C43.2344,5.28125 42.7917,5.39063 42.4688,5.60938 C42.2188,5.79688 42.0938,6.11458 42.0938,6.5625 C42.0938,6.875 42.2135,7.11458 42.4531,7.28125 C42.6927,7.46875 43.0417,7.61458 43.5,7.71875 L43.8438,7.78125 C44.4167,7.90625 44.849,8.08333 45.1406,8.3125 C45.4844,8.58333 45.6615,8.92708 45.6719,9.34375 C45.6719,9.90625 45.5052,10.349 45.1719,10.6719 C44.8177,10.9948 44.2396,11.1563 43.4375,11.1563 C43,11.1563 42.6667,11.125 42.4375,11.0625 C42.1563,10.9896 41.8646,10.8958 41.5625,10.7813 L41.5625,10.1563 C42,10.4063 42.2813,10.5521 42.4063,10.5938 C42.7604,10.6875 43.1146,10.7344 43.4688,10.7344 C44.0417,10.7344 44.4688,10.6146 44.75,10.375 C45.0313,10.125 45.1719,9.80729 45.1719,9.42188 C45.1719,9.08854 45.0781,8.84896 44.8906,8.70313 C44.6198,8.48438 44.1927,8.30729 43.6094,8.17188 L43.2656,8.09375 C42.7552,7.96875 42.3698,7.80208 42.1094,7.59375 C41.776,7.32292 41.6094,6.99479 41.6094,6.60938 C41.6094,5.98438 41.8099,5.53385 42.2109,5.25781 C42.612,4.98177 43.1042,4.84375 43.6875,4.84375 C44.1875,4.84375 44.5313,4.86979 44.7188,4.92188 C44.9479,4.98438 45.1719,5.0625 45.3906,5.15625 M48.2188,3.28125 L48.2188,4.98438 L50.25,4.98438 L50.25,5.40625 L48.2188,5.40625 L48.2188,9.01563 C48.2188,9.47396 48.276,9.79688 48.3906,9.98438 C48.6406,10.3802 49,10.5781 49.4688,10.5781 L50.25,10.5781 L50.25,11 L49.4844,11 C48.9948,11 48.5781,10.8568 48.2344,10.5703 C47.8906,10.2839 47.7188,9.76563 47.7188,9.01563 L47.7188,5.40625 L47,5.40625 L47,4.98438 L47.7188,4.98438 L47.7188,3.28125 L48.2188,3.28125 M52,4.98438 L52.5,4.98438 L52.5,11 L52,11 L52,4.98438 M52,2.64063 L52.5,2.64063 L52.5,3.3125 L52,3.3125 L52,2.64063 M59.1719,5.28125 L59.1719,5.79688 C58.8802,5.61979 58.6354,5.5 58.4375,5.4375 C58.1042,5.33333 57.7865,5.28125 57.4844,5.28125 C56.6198,5.28125 56,5.5026 55.625,5.94531 C55.25,6.38802 55.0625,7.07292 55.0625,8 C55.0625,8.9375 55.25,9.6276 55.625,10.0703 C56,10.513 56.6198,10.7344 57.4844,10.7344 C57.776,10.7344 58.0573,10.6927 58.3281,10.6094 C58.6198,10.5365 58.901,10.4219 59.1719,10.2656 L59.1719,10.7656 C58.901,10.901 58.6198,11 58.3281,11.0625 C58.026,11.125 57.7292,11.1563 57.4375,11.1563 C56.5625,11.1563 55.8646,10.9167 55.3438,10.4375 C54.8229,9.95833 54.5625,9.14323 54.5625,7.99219 C54.5625,6.84115 54.8229,6.02604 55.3438,5.54688 C55.8646,5.07813 56.5625,4.84375 57.4375,4.84375 C57.7292,4.84375 58.0365,4.88542 58.3594,4.96875 C58.6823,5.04167 58.9531,5.14583 59.1719,5.28125 M64.5156,5.15625 L64.5156,5.70313 C64.1615,5.50521 63.9427,5.39583 63.8594,5.375 C63.6094,5.32292 63.2969,5.29167 62.9219,5.28125 C62.3594,5.28125 61.9167,5.39063 61.5938,5.60938 C61.3438,5.79688 61.2188,6.11458 61.2188,6.5625 C61.2188,6.875 61.3385,7.11458 61.5781,7.28125 C61.8177,7.46875 62.1667,7.61458 62.625,7.71875 L62.9688,7.78125 C63.5417,7.90625 63.974,8.08333 64.2656,8.3125 C64.6094,8.58333 64.7865,8.92708 64.7969,9.34375 C64.7969,9.90625 64.6302,10.349 64.2969,10.6719 C63.9427,10.9948 63.3646,11.1563 62.5625,11.1563 C62.125,11.1563 61.7917,11.125 61.5625,11.0625 C61.2813,10.9896 60.9896,10.8958 60.6875,10.7813 L60.6875,10.1563 C61.125,10.4063 61.4063,10.5521 61.5313,10.5938 C61.8854,10.6875 62.2396,10.7344 62.5938,10.7344 C63.1667,10.7344 63.5938,10.6146 63.875,10.375 C64.1563,10.125 64.2969,9.80729 64.2969,9.42188 C64.2969,9.08854 64.2031,8.84896 64.0156,8.70313 C63.7448,8.48438 63.3177,8.30729 62.7344,8.17188 L62.3906,8.09375 C61.8802,7.96875 61.4948,7.80208 61.2344,7.59375 C60.901,7.32292 60.7344,6.99479 60.7344,6.60938 C60.7344,5.98438 60.9349,5.53385 61.3359,5.25781 C61.737,4.98177 62.2292,4.84375 62.8125,4.84375 C63.3125,4.84375 63.6563,4.86979 63.8438,4.92188 C64.0729,4.98438 64.2969,5.0625 64.5156,5.15625 "/>
</g>

<g fill="none" stroke="#000000" stroke-opacity="1" stroke-width="1" stroke-linecap="square" stroke-linejoin="bevel" transform="matrix(2,0,0,2,1326.33,22)"
font-family="sans" font-size="11" font-weight="100" font-style="normal" 
>
</g>

<g fill="none" stroke="#000000" stroke-opacity="1" stroke-width="1" stroke-linecap="square" stroke-linejoin="bevel" transform="matrix(2,0,0,2,1326.33,22)"
font-family="Sans Serif" font-size="9" font-weight="400" font-style="normal" 
>
</g>

<g fill="none" stroke="#000000" stroke-opacity="1" stroke-width="1" stroke-linecap="square" stroke-linejoin="bevel" transform="matrix(2,0,0,2,-0.0096,180)"
font-family="Sans Serif" font-size="9" font-weight="400" font-style="normal" 
>
</g>

<g fill="none" stroke="#000000" stroke-opacity="1" stroke-width="1" stroke-linecap="square" stroke-linejoin="bevel" transform="matrix(2,0,0,2,-0.0096,180)"
font-family="Sans Serif" font-size="9" font-weight="400" font-style="normal" 
>
</g>

<g fill="none" stroke="#000000" stroke-opacity="1" stroke-width="1" stroke-linecap="square" stroke-linejoin="bevel" transform="matrix(2,0,0,2,-0.0096,180)"
font-family="Sans Serif" font-size="9" font-weight="400" font-style="normal" 
>
</g>

<g fill="none" stroke="#000000" stroke-opacity="1" stroke-width="1" stroke-linecap="square" stroke-linejoin="round" transform="matrix(2,0,0,2,-0.0096,180)"
font-family="Sans Serif" font-size="9" font-weight="400" font-style="normal" 
>
<rect x="362.67" y="-35.5" width="63.0001" height="35"/>
</g>

<g fill="none" stroke="#000000" stroke-opacity="1" stroke-width="1" stroke-linecap="square" stroke-linejoin="bevel" transform="matrix(2,0,0,2,-0.0096,180)"
font-family="Sans Serif" font-size="9" font-weight="400" font-style="normal" 
>
</g>

<g fill="none" stroke="#000000" stroke-opacity="1" stroke-width="1" stroke-linecap="square" stroke-linejoin="bevel" transform="matrix(2,0,0,2,751.284,130)"
font-family="Sans Serif" font-size="9" font-weight="400" font-style="normal" 
>
</g>

<g fill="none" stroke="#000000" stroke-opacity="1" stroke-width="1" stroke-linecap="square" stroke-linejoin="bevel" transform="matrix(2,0,0,2,751.284,130)"
font-family="sans" font-size="11" font-weight="100" font-style="normal" 
>
</g>

<g fill="#000000" fill-opacity="1" stroke="#000000" stroke-opacity="1" stroke-width="1" stroke-linecap="square" stroke-linejoin="round" transform="matrix(2,0,0,2,751.284,130)"
font-family="sans" font-size="11" font-weight="100" font-style="normal" 
>
<path vector-effect="none" fill-rule="nonzero" d="M2.96875,2.98438 L3.53125,2.98438 L0.734375,12.0156 L0.171875,12.0156 L2.96875,2.98438 M8.35938,5.15625 L8.35938,5.70313 C8.00521,5.50521 7.78646,5.39583 7.70313,5.375 C7.45313,5.32292 7.14063,5.29167 6.76563,5.28125 C6.20313,5.28125 5.76042,5.39063 5.4375,5.60938 C5.1875,5.79688 5.0625,6.11458 5.0625,6.5625 C5.0625,6.875 5.18229,7.11458 5.42188,7.28125 C5.66146,7.46875 6.01042,7.61458 6.46875,7.71875 L6.8125,7.78125 C7.38542,7.90625 7.81771,8.08333 8.10938,8.3125 C8.45313,8.58333 8.63021,8.92708 8.64063,9.34375 C8.64063,9.90625 8.47396,10.349 8.14063,10.6719 C7.78646,10.9948 7.20833,11.1563 6.40625,11.1563 C5.96875,11.1563 5.63542,11.125 5.40625,11.0625 C5.125,10.9896 4.83333,10.8958 4.53125,10.7813 L4.53125,10.1563 C4.96875,10.4063 5.25,10.5521 5.375,10.5938 C5.72917,10.6875 6.08333,10.7344 6.4375,10.7344 C7.01042,10.7344 7.4375,10.6146 7.71875,10.375 C8,10.125 8.14063,9.80729 8.14063,9.42188 C8.14063,9.08854 8.04688,8.84896 7.85938,8.70313 C7.58854,8.48438 7.16146,8.30729 6.57813,8.17188 L6.23438,8.09375 C5.72396,7.96875 5.33854,7.80208 5.07813,7.59375 C4.74479,7.32292 4.57813,6.99479 4.57813,6.60938 C4.57813,5.98438 4.77865,5.53385 5.17969,5.25781 C5.58073,4.98177 6.07292,4.84375 6.65625,4.84375 C7.15625,4.84375 7.5,4.86979 7.6875,4.92188 C7.91667,4.98438 8.14063,5.0625 8.35938,5.15625 M14.25,6.01563 C13.8958,5.52604 13.4115,5.28125 12.7969,5.28125 C12.1823,5.28125 11.6979,5.52604 11.3438,6.01563 C10.9896,6.49479 10.8125,7.15104 10.8125,7.98438 C10.8125,8.83854 10.9896,9.51042 11.3438,10 C11.6979,10.4896 12.1823,10.7344 12.7969,10.7344 C13.4115,10.7344 13.8958,10.4896 14.25,10 C14.6042,9.5 14.7813,8.82813 14.7813,7.98438 C14.7813,7.16146 14.6042,6.50521 14.25,6.01563 M12.7969,4.84375 C13.5573,4.84375 14.1615,5.13021 14.6094,5.70313 C15.0573,6.27604 15.2813,7.03646 15.2813,7.98438 C15.2813,8.97396 15.0573,9.75521 14.6094,10.3281 C14.1615,10.901 13.5573,11.1875 12.7969,11.1875 C12.0156,11.1875 11.401,10.901 10.9531,10.3281 C10.5156,9.75521 10.2969,8.97396 10.2969,7.98438 C10.2969,7.02604 10.5208,6.26302 10.9688,5.69531 C11.4167,5.1276 12.026,4.84375 12.7969,4.84375 M17.3281,8.60938 L17.3281,4.98438 L17.8125,4.98438 L17.8125,8.57813 C17.8125,9.35938 17.9375,9.90885 18.1875,10.2266 C18.4375,10.5443 18.8073,10.7031 19.2969,10.7031 C19.8698,10.7031 20.3594,10.5313 20.7656,10.1875 C21.1719,9.84375 21.375,9.24479 21.375,8.39063 L21.375,4.98438 L21.8594,4.98438 L21.8594,11 L21.375,11 L21.375,9.875 C21.1979,10.2396 20.9635,10.5156 20.6719,10.7031 C20.2552,10.9948 19.7917,11.1406 19.2813,11.1406 C18.6875,11.1406 18.2135,10.9375 17.8594,10.5313 C17.5052,10.1354 17.3281,9.49479 17.3281,8.60938 M28.9063,7.375 L28.9063,11 L28.4063,11 L28.4063,7.40625 C28.4063,6.625 28.2813,6.07552 28.0313,5.75781 C27.7813,5.4401 27.4115,5.28125 26.9219,5.28125 C26.349,5.28125 25.8646,5.45313 25.4688,5.79688 C25.0521,6.14063 24.8438,6.73958 24.8438,7.59375 L24.8438,11 L24.3594,11 L24.3594,4.98438 L24.8438,4.98438 L24.8438,6.10938 C25.0208,5.74479 25.2552,5.46875 25.5469,5.28125 C25.9635,4.98958 26.4271,4.84375 26.9375,4.84375 C27.5417,4.84375 28.0208,5.04688 28.375,5.45313 C28.7292,5.84896 28.9063,6.48958 28.9063,7.375 M35.3281,6.35938 L35.3281,2.64063 L35.7969,2.64063 L35.7969,11 L35.3281,11 L35.3281,9.64063 C35.099,10.1615 34.849,10.5156 34.5781,10.7031 C34.1823,11.0052 33.8021,11.1563 33.4375,11.1563 C32.7292,11.1563 32.138,10.8672 31.6641,10.2891 C31.1901,9.71094 30.9531,8.94792 30.9531,8 C30.9531,7.05208 31.1901,6.28906 31.6641,5.71094 C32.138,5.13281 32.7292,4.84375 33.4375,4.84375 C33.8021,4.84375 34.1823,4.98958 34.5781,5.28125 C34.849,5.47917 35.099,5.83854 35.3281,6.35938 M32.0938,5.90625 C31.6771,6.32292 31.4688,7.02083 31.4688,8 C31.4688,8.97917 31.6771,9.67708 32.0938,10.0938 C32.5104,10.5104 32.9479,10.7188 33.4063,10.7188 C33.8542,10.7188 34.2865,10.5104 34.7031,10.0938 C35.1094,9.67708 35.3125,8.97917 35.3125,8 C35.3125,7.02083 35.1094,6.32292 34.7031,5.90625 C34.2865,5.48958 33.8542,5.28125 33.4063,5.28125 C32.9479,5.28125 32.5104,5.48958 32.0938,5.90625 "/>
</g>

<g fill="none" stroke="#000000" stroke-opacity="1" stroke-width="1" stroke-linecap="square" stroke-linejoin="bevel" transform="matrix(2,0,0,2,751.284,130)"
font-family="sans" font-size="11" font-weight="100" font-style="normal" 
>
</g>

<g fill="none" stroke="#000000" stroke-opacity="1" stroke-width="1" stroke-linecap="square" stroke-linejoin="bevel" transform="matrix(2,0,0,2,751.284,130)"
font-family="Sans Serif" font-size="9" font-weight="400" font-style="normal" 
>
</g>

<g fill="none" stroke="#000000" stroke-opacity="1" stroke-width="1" stroke-linecap="square" stroke-linejoin="bevel" transform="matrix(2,0,0,2,-0.0096,180)"
font-family="Sans Serif" font-size="9" font-weight="400" font-style="normal" 
>
</g>

<g fill="none" stroke="#000000" stroke-opacity="1" stroke-width="1" stroke-linecap="square" stroke-linejoin="bevel" transform="matrix(2,0,0,2,-0.0096,180)"
font-family="Sans Serif" font-size="9" font-weight="400" font-style="normal" 
>
</g>

<g fill="none" stroke="#000000" stroke-opacity="1" stroke-width="1" stroke-linecap="square" stroke-linejoin="bevel" transform="matrix(2,0,0,2,-0.0096,180)"
font-family="Sans Serif" font-size="9" font-weight="400" font-style="normal" 
>
</g>

<g fill="none" stroke="#000000" stroke-opacity="1" stroke-width="1" stroke-linecap="square" stroke-linejoin="round" transform="matrix(2,0,0,2,-0.0096,180)"
font-family="Sans Serif" font-size="9" font-weight="400" font-style="normal" 
>
<rect x="642.96" y="-35.5" width="105.999" height="35"/>
</g>

<g fill="none" stroke="#000000" stroke-opacity="1" stroke-width="1" stroke-linecap="square" stroke-linejoin="bevel" transform="matrix(2,0,0,2,-0.0096,180)"
font-family="Sans Serif" font-size="9" font-weight="400" font-style="normal" 
>
</g>

<g fill="none" stroke="#000000" stroke-opacity="1" stroke-width="1" stroke-linecap="square" stroke-linejoin="bevel" transform="matrix(2,0,0,2,1321.55,130)"
font-family="Sans Serif" font-size="9" font-weight="400" font-style="normal" 
>
</g>

<g fill="none" stroke="#000000" stroke-opacity="1" stroke-width="1" stroke-linecap="square" stroke-linejoin="bevel" transform="matrix(2,0,0,2,1321.55,130)"
font-family="sans" font-size="11" font-weight="100" font-style="normal" 
>
</g>

<g fill="#000000" fill-opacity="1" stroke="#000000" stroke-opacity="1" stroke-width="1" stroke-linecap="square" stroke-linejoin="round" transform="matrix(2,0,0,2,1321.55,130)"
font-family="sans" font-size="11" font-weight="100" font-style="normal" 
>
<path vector-effect="none" fill-rule="nonzero" d="M2.96875,2.98438 L3.53125,2.98438 L0.734375,12.0156 L0.171875,12.0156 L2.96875,2.98438 M8.35938,5.15625 L8.35938,5.70313 C8.00521,5.50521 7.78646,5.39583 7.70313,5.375 C7.45313,5.32292 7.14063,5.29167 6.76563,5.28125 C6.20313,5.28125 5.76042,5.39063 5.4375,5.60938 C5.1875,5.79688 5.0625,6.11458 5.0625,6.5625 C5.0625,6.875 5.18229,7.11458 5.42188,7.28125 C5.66146,7.46875 6.01042,7.61458 6.46875,7.71875 L6.8125,7.78125 C7.38542,7.90625 7.81771,8.08333 8.10938,8.3125 C8.45313,8.58333 8.63021,8.92708 8.64063,9.34375 C8.64063,9.90625 8.47396,10.349 8.14063,10.6719 C7.78646,10.9948 7.20833,11.1563 6.40625,11.1563 C5.96875,11.1563 5.63542,11.125 5.40625,11.0625 C5.125,10.9896 4.83333,10.8958 4.53125,10.7813 L4.53125,10.1563 C4.96875,10.4063 5.25,10.5521 5.375,10.5938 C5.72917,10.6875 6.08333,10.7344 6.4375,10.7344 C7.01042,10.7344 7.4375,10.6146 7.71875,10.375 C8,10.125 8.14063,9.80729 8.14063,9.42188 C8.14063,9.08854 8.04688,8.84896 7.85938,8.70313 C7.58854,8.48438 7.16146,8.30729 6.57813,8.17188 L6.23438,8.09375 C5.72396,7.96875 5.33854,7.80208 5.07813,7.59375 C4.74479,7.32292 4.57813,6.99479 4.57813,6.60938 C4.57813,5.98438 4.77865,5.53385 5.17969,5.25781 C5.58073,4.98177 6.07292,4.84375 6.65625,4.84375 C7.15625,4.84375 7.5,4.86979 7.6875,4.92188 C7.91667,4.98438 8.14063,5.0625 8.35938,5.15625 M15.3594,7.75 L15.3594,8.0625 L10.7969,8.0625 C10.7969,9.02083 10.9844,9.69792 11.3594,10.0938 C11.776,10.5208 12.3906,10.7344 13.2031,10.7344 C13.4219,10.7344 13.7083,10.6875 14.0625,10.5938 C14.4167,10.5 14.7708,10.3594 15.125,10.1719 L15.125,10.6875 C14.7708,10.8438 14.4089,10.9609 14.0391,11.0391 C13.6693,11.1172 13.375,11.1563 13.1563,11.1563 C12.2292,11.1563 11.5313,10.9063 11.0625,10.4063 C10.5521,9.875 10.2969,9.09375 10.2969,8.0625 C10.2969,6.98958 10.526,6.1875 10.9844,5.65625 C11.4635,5.11458 12.1302,4.84375 12.9844,4.84375 C13.7656,4.84375 14.3594,5.10417 14.7656,5.625 C15.1615,6.16667 15.3594,6.875 15.3594,7.75 M14.8594,7.64063 C14.8594,6.79688 14.6667,6.18229 14.2813,5.79688 C13.9688,5.45313 13.5365,5.28125 12.9844,5.28125 C12.3906,5.28125 11.8906,5.45833 11.4844,5.8125 C11.1094,6.14583 10.8854,6.75521 10.8125,7.64063 L14.8594,7.64063 M21.9844,7.375 L21.9844,11 L21.4844,11 L21.4844,7.40625 C21.4844,6.625 21.3594,6.07552 21.1094,5.75781 C20.8594,5.4401 20.4896,5.28125 20,5.28125 C19.4271,5.28125 18.9427,5.45313 18.5469,5.79688 C18.1302,6.14063 17.9219,6.73958 17.9219,7.59375 L17.9219,11 L17.4375,11 L17.4375,4.98438 L17.9219,4.98438 L17.9219,6.10938 C18.099,5.74479 18.3333,5.46875 18.625,5.28125 C19.0417,4.98958 19.5052,4.84375 20.0156,4.84375 C20.6198,4.84375 21.099,5.04688 21.4531,5.45313 C21.8073,5.84896 21.9844,6.48958 21.9844,7.375 M27.8125,5.15625 L27.8125,5.70313 C27.4583,5.50521 27.2396,5.39583 27.1563,5.375 C26.9063,5.32292 26.5938,5.29167 26.2188,5.28125 C25.6563,5.28125 25.2135,5.39063 24.8906,5.60938 C24.6406,5.79688 24.5156,6.11458 24.5156,6.5625 C24.5156,6.875 24.6354,7.11458 24.875,7.28125 C25.1146,7.46875 25.4635,7.61458 25.9219,7.71875 L26.2656,7.78125 C26.8385,7.90625 27.2708,8.08333 27.5625,8.3125 C27.9063,8.58333 28.0833,8.92708 28.0938,9.34375 C28.0938,9.90625 27.9271,10.349 27.5938,10.6719 C27.2396,10.9948 26.6615,11.1563 25.8594,11.1563 C25.4219,11.1563 25.0885,11.125 24.8594,11.0625 C24.5781,10.9896 24.2865,10.8958 23.9844,10.7813 L23.9844,10.1563 C24.4219,10.4063 24.7031,10.5521 24.8281,10.5938 C25.1823,10.6875 25.5365,10.7344 25.8906,10.7344 C26.4635,10.7344 26.8906,10.6146 27.1719,10.375 C27.4531,10.125 27.5938,9.80729 27.5938,9.42188 C27.5938,9.08854 27.5,8.84896 27.3125,8.70313 C27.0417,8.48438 26.6146,8.30729 26.0313,8.17188 L25.6875,8.09375 C25.1771,7.96875 24.7917,7.80208 24.5313,7.59375 C24.1979,7.32292 24.0313,6.99479 24.0313,6.60938 C24.0313,5.98438 24.2318,5.53385 24.6328,5.25781 C25.0339,4.98177 25.526,4.84375 26.1094,4.84375 C26.6094,4.84375 26.9531,4.86979 27.1406,4.92188 C27.3698,4.98438 27.5938,5.0625 27.8125,5.15625 M33.7031,6.01563 C33.349,5.52604 32.8646,5.28125 32.25,5.28125 C31.6354,5.28125 31.151,5.52604 30.7969,6.01563 C30.4427,6.49479 30.2656,7.15104 30.2656,7.98438 C30.2656,8.83854 30.4427,9.51042 30.7969,10 C31.151,10.4896 31.6354,10.7344 32.25,10.7344 C32.8646,10.7344 33.349,10.4896 33.7031,10 C34.0573,9.5 34.2344,8.82813 34.2344,7.98438 C34.2344,7.16146 34.0573,6.50521 33.7031,6.01563 M32.25,4.84375 C33.0104,4.84375 33.6146,5.13021 34.0625,5.70313 C34.5104,6.27604 34.7344,7.03646 34.7344,7.98438 C34.7344,8.97396 34.5104,9.75521 34.0625,10.3281 C33.6146,10.901 33.0104,11.1875 32.25,11.1875 C31.4688,11.1875 30.8542,10.901 30.4063,10.3281 C29.9688,9.75521 29.75,8.97396 29.75,7.98438 C29.75,7.02604 29.974,6.26302 30.4219,5.69531 C30.8698,5.1276 31.4792,4.84375 32.25,4.84375 M40.1094,5.40625 C40.026,5.36458 39.9167,5.33333 39.7813,5.3125 C39.6563,5.29167 39.5052,5.28125 39.3281,5.28125 C38.7135,5.28125 38.2083,5.50521 37.8125,5.95313 C37.4896,6.31771 37.3281,6.94271 37.3281,7.82813 L37.3281,11 L36.8438,11 L36.8438,4.98438 L37.3281,4.98438 L37.3281,6.10938 C37.4948,5.78646 37.724,5.51563 38.0156,5.29688 C38.4115,4.99479 38.8802,4.84375 39.4219,4.84375 C39.5677,4.84375 39.6927,4.84896 39.7969,4.85938 C39.901,4.85938 40.0052,4.86979 40.1094,4.89063 L40.1094,5.40625 M45.7188,13.1719 L45.7188,13.5938 L40,13.5938 L40,13.1719 L45.7188,13.1719 M50.8594,6.35938 L50.8594,2.64063 L51.3281,2.64063 L51.3281,11 L50.8594,11 L50.8594,9.64063 C50.6302,10.1615 50.3802,10.5156 50.1094,10.7031 C49.7135,11.0052 49.3333,11.1563 48.9688,11.1563 C48.2604,11.1563 47.6693,10.8672 47.1953,10.2891 C46.7214,9.71094 46.4844,8.94792 46.4844,8 C46.4844,7.05208 46.7214,6.28906 47.1953,5.71094 C47.6693,5.13281 48.2604,4.84375 48.9688,4.84375 C49.3333,4.84375 49.7135,4.98958 50.1094,5.28125 C50.3802,5.47917 50.6302,5.83854 50.8594,6.35938 M47.625,5.90625 C47.2083,6.32292 47,7.02083 47,8 C47,8.97917 47.2083,9.67708 47.625,10.0938 C48.0417,10.5104 48.4792,10.7188 48.9375,10.7188 C49.3854,10.7188 49.8177,10.5104 50.2344,10.0938 C50.6406,9.67708 50.8438,8.97917 50.8438,8 C50.8438,7.02083 50.6406,6.32292 50.2344,5.90625 C49.8177,5.48958 49.3854,5.28125 48.9375,5.28125 C48.4792,5.28125 48.0417,5.48958 47.625,5.90625 M56.2344,7.60938 C55.4323,7.60938 54.8568,7.75 54.5078,8.03125 C54.1589,8.3125 53.9844,8.72396 53.9844,9.26563 C53.9844,9.79688 54.1302,10.1745 54.4219,10.3984 C54.7135,10.6224 55.0573,10.7344 55.4531,10.7344 C56.2031,10.7344 56.7448,10.4167 57.0781,9.78125 C57.4115,9.13542 57.5781,8.53125 57.5781,7.96875 L57.5781,7.60938 L56.2344,7.60938 M58.0781,7.5625 L58.0781,11 L57.5781,11 L57.5781,9.35938 C57.3073,10.1615 56.9427,10.6719 56.4844,10.8906 C56.1302,11.0677 55.7708,11.1563 55.4063,11.1563 C54.8125,11.1563 54.3438,10.9948 54,10.6719 C53.6563,10.349 53.4844,9.8776 53.4844,9.25781 C53.4844,8.63802 53.7083,8.14063 54.1563,7.76563 C54.6042,7.39063 55.3333,7.20313 56.3438,7.20313 L57.5781,7.20313 L57.5781,7.10938 C57.5781,6.57813 57.4219,6.14063 57.1094,5.79688 C56.8177,5.45313 56.3229,5.28125 55.625,5.28125 C55.2813,5.28125 54.9323,5.34375 54.5781,5.46875 C54.349,5.55208 54.0469,5.71875 53.6719,5.96875 L53.6719,5.4375 C53.9948,5.23958 54.2969,5.09896 54.5781,5.01563 C54.974,4.90104 55.3542,4.84375 55.7188,4.84375 C56.4375,4.84375 57.026,5.05729 57.4844,5.48438 C57.8802,5.84896 58.0781,6.54167 58.0781,7.5625 M61.0781,3.28125 L61.0781,4.98438 L63.1094,4.98438 L63.1094,5.40625 L61.0781,5.40625 L61.0781,9.01563 C61.0781,9.47396 61.1354,9.79688 61.25,9.98438 C61.5,10.3802 61.8594,10.5781 62.3281,10.5781 L63.1094,10.5781 L63.1094,11 L62.3438,11 C61.8542,11 61.4375,10.8568 61.0938,10.5703 C60.75,10.2839 60.5781,9.76563 60.5781,9.01563 L60.5781,5.40625 L59.8594,5.40625 L59.8594,4.98438 L60.5781,4.98438 L60.5781,3.28125 L61.0781,3.28125 M67.2813,7.60938 C66.4792,7.60938 65.9036,7.75 65.5547,8.03125 C65.2057,8.3125 65.0313,8.72396 65.0313,9.26563 C65.0313,9.79688 65.1771,10.1745 65.4688,10.3984 C65.7604,10.6224 66.1042,10.7344 66.5,10.7344 C67.25,10.7344 67.7917,10.4167 68.125,9.78125 C68.4583,9.13542 68.625,8.53125 68.625,7.96875 L68.625,7.60938 L67.2813,7.60938 M69.125,7.5625 L69.125,11 L68.625,11 L68.625,9.35938 C68.3542,10.1615 67.9896,10.6719 67.5313,10.8906 C67.1771,11.0677 66.8177,11.1563 66.4531,11.1563 C65.8594,11.1563 65.3906,10.9948 65.0469,10.6719 C64.7031,10.349 64.5313,9.8776 64.5313,9.25781 C64.5313,8.63802 64.7552,8.14063 65.2031,7.76563 C65.651,7.39063 66.3802,7.20313 67.3906,7.20313 L68.625,7.20313 L68.625,7.10938 C68.625,6.57813 68.4688,6.14063 68.1563,5.79688 C67.8646,5.45313 67.3698,5.28125 66.6719,5.28125 C66.3281,5.28125 65.9792,5.34375 65.625,5.46875 C65.3958,5.55208 65.0938,5.71875 64.7188,5.96875 L64.7188,5.4375 C65.0417,5.23958 65.3438,5.09896 65.625,5.01563 C66.0208,4.90104 66.401,4.84375 66.7656,4.84375 C67.4844,4.84375 68.0729,5.05729 68.5313,5.48438 C68.9271,5.84896 69.125,6.54167 69.125,7.5625 "/>
</g>

<g fill="none" stroke="#000000" stroke-opacity="1" stroke-width="1" stroke-linecap="square" stroke-linejoin="bevel" transform="matrix(2,0,0,2,1321.55,130)"
font-family="sans" font-size="11" font-weight="100" font-style="normal" 
>
</g>

<g fill="none" stroke="#000000" stroke-opacity="1" stroke-width="1" stroke-linecap="square" stroke-linejoin="bevel" transform="matrix(2,0,0,2,1321.55,130)"
font-family="Sans Serif" font-size="9" font-weight="400" font-style="normal" 
>
</g>

<g fill="none" stroke="#000000" stroke-opacity="1" stroke-width="1" stroke-linecap="square" stroke-linejoin="bevel" transform="matrix(2,0,0,2,-0.0096,180)"
font-family="Sans Serif" font-size="9" font-weight="400" font-style="normal" 
>
</g>

<g fill="none" stroke="#000000" stroke-opacity="1" stroke-width="1" stroke-linecap="square" stroke-linejoin="bevel" transform="matrix(2,0,0,2,-0.0096,180)"
font-family="Sans Serif" font-size="9" font-weight="400" font-style="normal" 
>
</g>

<g fill="none" stroke="#000000" stroke-opacity="1" stroke-width="1" stroke-linecap="square" stroke-linejoin="bevel" transform="matrix(2,0,0,2,-0.0096,180)"
font-family="Sans Serif" font-size="9" font-weight="400" font-style="normal" 
>
</g>

<g fill="none" stroke="#000000" stroke-opacity="1" stroke-width="1" stroke-linecap="square" stroke-linejoin="round" transform="matrix(2,0,0,2,-0.0096,180)"
font-family="Sans Serif" font-size="9" font-weight="400" font-style="normal" 
>
<ellipse cx="165.09" cy="-18" rx="164.585" ry="17.5"/>
</g>

<g fill="none" stroke="#000000" stroke-opacity="1" stroke-width="1" stroke-linecap="square" stroke-linejoin="bevel" transform="matrix(2,0,0,2,-0.0096,180)"
font-family="Sans Serif" font-size="9" font-weight="400" font-style="normal" 
>
</g>

<g fill="none" stroke="#000000" stroke-opacity="1" stroke-width="1" stroke-linecap="square" stroke-linejoin="bevel" transform="matrix(2,0,0,2,145.702,130)"
font-family="Sans Serif" font-size="9" font-weight="400" font-style="normal" 
>
</g>

<g fill="none" stroke="#000000" stroke-opacity="1" stroke-width="1" stroke-linecap="square" stroke-linejoin="bevel" transform="matrix(2,0,0,2,145.702,130)"
font-family="sans" font-size="11" font-weight="100" font-style="normal" 
>
</g>

<g fill="#000000" fill-opacity="1" stroke="#000000" stroke-opacity="1" stroke-width="1" stroke-linecap="square" stroke-linejoin="round" transform="matrix(2,0,0,2,145.702,130)"
font-family="sans" font-size="11" font-weight="100" font-style="normal" 
>
<path vector-effect="none" fill-rule="nonzero" d="M2.96875,2.98438 L3.53125,2.98438 L0.734375,12.0156 L0.171875,12.0156 L2.96875,2.98438 M8.21875,5.40625 C8.13542,5.36458 8.02604,5.33333 7.89063,5.3125 C7.76563,5.29167 7.61458,5.28125 7.4375,5.28125 C6.82292,5.28125 6.31771,5.50521 5.92188,5.95313 C5.59896,6.31771 5.4375,6.94271 5.4375,7.82813 L5.4375,11 L4.95313,11 L4.95313,4.98438 L5.4375,4.98438 L5.4375,6.10938 C5.60417,5.78646 5.83333,5.51563 6.125,5.29688 C6.52083,4.99479 6.98958,4.84375 7.53125,4.84375 C7.67708,4.84375 7.80208,4.84896 7.90625,4.85938 C8.01042,4.85938 8.11458,4.86979 8.21875,4.89063 L8.21875,5.40625 M13.0469,6.01563 C12.6927,5.52604 12.2083,5.28125 11.5938,5.28125 C10.9792,5.28125 10.4948,5.52604 10.1406,6.01563 C9.78646,6.49479 9.60938,7.15104 9.60938,7.98438 C9.60938,8.83854 9.78646,9.51042 10.1406,10 C10.4948,10.4896 10.9792,10.7344 11.5938,10.7344 C12.2083,10.7344 12.6927,10.4896 13.0469,10 C13.401,9.5 13.5781,8.82813 13.5781,7.98438 C13.5781,7.16146 13.401,6.50521 13.0469,6.01563 M11.5938,4.84375 C12.3542,4.84375 12.9583,5.13021 13.4063,5.70313 C13.8542,6.27604 14.0781,7.03646 14.0781,7.98438 C14.0781,8.97396 13.8542,9.75521 13.4063,10.3281 C12.9583,10.901 12.3542,11.1875 11.5938,11.1875 C10.8125,11.1875 10.1979,10.901 9.75,10.3281 C9.3125,9.75521 9.09375,8.97396 9.09375,7.98438 C9.09375,7.02604 9.31771,6.26302 9.76563,5.69531 C10.2135,5.1276 10.8229,4.84375 11.5938,4.84375 M19.5938,5.15625 L19.5938,5.70313 C19.2396,5.50521 19.0208,5.39583 18.9375,5.375 C18.6875,5.32292 18.375,5.29167 18,5.28125 C17.4375,5.28125 16.9948,5.39063 16.6719,5.60938 C16.4219,5.79688 16.2969,6.11458 16.2969,6.5625 C16.2969,6.875 16.4167,7.11458 16.6563,7.28125 C16.8958,7.46875 17.2448,7.61458 17.7031,7.71875 L18.0469,7.78125 C18.6198,7.90625 19.0521,8.08333 19.3438,8.3125 C19.6875,8.58333 19.8646,8.92708 19.875,9.34375 C19.875,9.90625 19.7083,10.349 19.375,10.6719 C19.0208,10.9948 18.4427,11.1563 17.6406,11.1563 C17.2031,11.1563 16.8698,11.125 16.6406,11.0625 C16.3594,10.9896 16.0677,10.8958 15.7656,10.7813 L15.7656,10.1563 C16.2031,10.4063 16.4844,10.5521 16.6094,10.5938 C16.9635,10.6875 17.3177,10.7344 17.6719,10.7344 C18.2448,10.7344 18.6719,10.6146 18.9531,10.375 C19.2344,10.125 19.375,9.80729 19.375,9.42188 C19.375,9.08854 19.2813,8.84896 19.0938,8.70313 C18.8229,8.48438 18.3958,8.30729 17.8125,8.17188 L17.4688,8.09375 C16.9583,7.96875 16.5729,7.80208 16.3125,7.59375 C15.9792,7.32292 15.8125,6.99479 15.8125,6.60938 C15.8125,5.98438 16.013,5.53385 16.4141,5.25781 C16.8151,4.98177 17.3073,4.84375 17.8906,4.84375 C18.3906,4.84375 18.7344,4.86979 18.9219,4.92188 C19.151,4.98438 19.375,5.0625 19.5938,5.15625 M22.4219,3.28125 L22.4219,4.98438 L24.4531,4.98438 L24.4531,5.40625 L22.4219,5.40625 L22.4219,9.01563 C22.4219,9.47396 22.4792,9.79688 22.5938,9.98438 C22.8438,10.3802 23.2031,10.5781 23.6719,10.5781 L24.4531,10.5781 L24.4531,11 L23.6875,11 C23.1979,11 22.7813,10.8568 22.4375,10.5703 C22.0938,10.2839 21.9219,9.76563 21.9219,9.01563 L21.9219,5.40625 L21.2031,5.40625 L21.2031,4.98438 L21.9219,4.98438 L21.9219,3.28125 L22.4219,3.28125 M29.7969,6.01563 C29.4427,5.52604 28.9583,5.28125 28.3438,5.28125 C27.7292,5.28125 27.2448,5.52604 26.8906,6.01563 C26.5365,6.49479 26.3594,7.15104 26.3594,7.98438 C26.3594,8.83854 26.5365,9.51042 26.8906,10 C27.2448,10.4896 27.7292,10.7344 28.3438,10.7344 C28.9583,10.7344 29.4427,10.4896 29.7969,10 C30.151,9.5 30.3281,8.82813 30.3281,7.98438 C30.3281,7.16146 30.151,6.50521 29.7969,6.01563 M28.3438,4.84375 C29.1042,4.84375 29.7083,5.13021 30.1563,5.70313 C30.6042,6.27604 30.8281,7.03646 30.8281,7.98438 C30.8281,8.97396 30.6042,9.75521 30.1563,10.3281 C29.7083,10.901 29.1042,11.1875 28.3438,11.1875 C27.5625,11.1875 26.9479,10.901 26.5,10.3281 C26.0625,9.75521 25.8438,8.97396 25.8438,7.98438 C25.8438,7.02604 26.0677,6.26302 26.5156,5.69531 C26.9635,5.1276 27.5729,4.84375 28.3438,4.84375 M33.4219,9.64063 L33.4219,13.2813 L32.9375,13.2813 L32.9375,4.98438 L33.4219,4.98438 L33.4219,6.35938 C33.651,5.83854 33.8958,5.47917 34.1563,5.28125 C34.5625,4.98958 34.9479,4.84375 35.3125,4.84375 C36.0208,4.84375 36.612,5.13281 37.0859,5.71094 C37.5599,6.28906 37.7969,7.05208 37.7969,8 C37.7969,8.94792 37.5599,9.71094 37.0859,10.2891 C36.612,10.8672 36.0208,11.1563 35.3125,11.1563 C34.9479,11.1563 34.5625,11.0052 34.1563,10.7031 C33.8958,10.5156 33.651,10.1615 33.4219,9.64063 M36.6563,10.0938 C37.0729,9.67708 37.2813,8.97917 37.2813,8 C37.2813,7.02083 37.0729,6.32292 36.6563,5.90625 C36.2396,5.48958 35.8021,5.28125 35.3438,5.28125 C34.8958,5.28125 34.4635,5.48958 34.0469,5.90625 C33.6406,6.32292 33.4375,7.02083 33.4375,8 C33.4375,8.97917 33.6406,9.67708 34.0469,10.0938 C34.4635,10.5104 34.8958,10.7188 35.3438,10.7188 C35.8021,10.7188 36.2396,10.5104 36.6563,10.0938 M39.8906,4.98438 L40.3906,4.98438 L40.3906,11 L39.8906,11 L39.8906,4.98438 M39.8906,2.64063 L40.3906,2.64063 L40.3906,3.3125 L39.8906,3.3125 L39.8906,2.64063 M47.0625,5.28125 L47.0625,5.79688 C46.7708,5.61979 46.526,5.5 46.3281,5.4375 C45.9948,5.33333 45.6771,5.28125 45.375,5.28125 C44.5104,5.28125 43.8906,5.5026 43.5156,5.94531 C43.1406,6.38802 42.9531,7.07292 42.9531,8 C42.9531,8.9375 43.1406,9.6276 43.5156,10.0703 C43.8906,10.513 44.5104,10.7344 45.375,10.7344 C45.6667,10.7344 45.9479,10.6927 46.2188,10.6094 C46.5104,10.5365 46.7917,10.4219 47.0625,10.2656 L47.0625,10.7656 C46.7917,10.901 46.5104,11 46.2188,11.0625 C45.9167,11.125 45.6198,11.1563 45.3281,11.1563 C44.4531,11.1563 43.7552,10.9167 43.2344,10.4375 C42.7135,9.95833 42.4531,9.14323 42.4531,7.99219 C42.4531,6.84115 42.7135,6.02604 43.2344,5.54688 C43.7552,5.07813 44.4531,4.84375 45.3281,4.84375 C45.6198,4.84375 45.9271,4.88542 46.25,4.96875 C46.5729,5.04167 46.8438,5.14583 47.0625,5.28125 M53.3594,13.1719 L53.3594,13.5938 L47.6406,13.5938 L47.6406,13.1719 L53.3594,13.1719 M56.75,7 C56.1458,7 55.6719,7.16667 55.3281,7.5 C54.9948,7.83333 54.8281,8.28906 54.8281,8.86719 C54.8281,9.44531 54.9948,9.90104 55.3281,10.2344 C55.6719,10.5677 56.1432,10.7344 56.7422,10.7344 C57.3411,10.7344 57.8125,10.5677 58.1563,10.2344 C58.5104,9.90104 58.6875,9.44792 58.6875,8.875 C58.6875,8.29167 58.5156,7.83333 58.1719,7.5 C57.8281,7.16667 57.3542,7 56.75,7 M55.6563,6.73438 C55.3125,6.59896 55.0313,6.38021 54.8125,6.07813 C54.5729,5.76563 54.4531,5.38021 54.4531,4.92188 C54.4531,4.27604 54.6589,3.76563 55.0703,3.39063 C55.4818,3.01563 56.0417,2.82813 56.75,2.82813 C57.4583,2.82813 58.0156,3.01563 58.4219,3.39063 C58.8281,3.76563 59.0313,4.27604 59.0313,4.92188 C59.0313,5.39063 58.9167,5.77604 58.6875,6.07813 C58.4479,6.39063 58.1667,6.60938 57.8438,6.73438 C58.2396,6.85938 58.5625,7.09375 58.8125,7.4375 C59.0729,7.79167 59.2031,8.22917 59.2031,8.75 C59.2031,9.52083 58.9948,10.1146 58.5781,10.5313 C58.151,10.9479 57.5417,11.1563 56.75,11.1563 C55.9583,11.1563 55.349,10.9479 54.9219,10.5313 C54.4948,10.1146 54.2813,9.52083 54.2813,8.75 C54.2813,8.22917 54.4115,7.79167 54.6719,7.4375 C54.9635,7.08333 55.2917,6.84896 55.6563,6.73438 M55.4609,3.71094 C55.1536,3.9974 55,4.40104 55,4.92188 C55,5.44271 55.1536,5.84896 55.4609,6.14063 C55.7682,6.43229 56.1979,6.57813 56.75,6.57813 C57.2917,6.57813 57.7188,6.43229 58.0313,6.14063 C58.3438,5.84896 58.5,5.44271 58.5,4.92188 C58.5,4.40104 58.3438,4 58.0313,3.71875 C57.7188,3.42708 57.2917,3.28125 56.75,3.28125 C56.1979,3.28125 55.7682,3.42448 55.4609,3.71094 M61.1406,2.98438 L66.0156,2.98438 L66.0156,3.4375 L63.1094,11 L62.5313,11 L65.4531,3.42188 L61.1406,3.42188 L61.1406,2.98438 M70.7188,7 C70.1146,7 69.6406,7.16667 69.2969,7.5 C68.9635,7.83333 68.7969,8.28906 68.7969,8.86719 C68.7969,9.44531 68.9635,9.90104 69.2969,10.2344 C69.6406,10.5677 70.112,10.7344 70.7109,10.7344 C71.3099,10.7344 71.7813,10.5677 72.125,10.2344 C72.4792,9.90104 72.6563,9.44792 72.6563,8.875 C72.6563,8.29167 72.4844,7.83333 72.1406,7.5 C71.7969,7.16667 71.3229,7 70.7188,7 M69.625,6.73438 C69.2813,6.59896 69,6.38021 68.7813,6.07813 C68.5417,5.76563 68.4219,5.38021 68.4219,4.92188 C68.4219,4.27604 68.6276,3.76563 69.0391,3.39063 C69.4505,3.01563 70.0104,2.82813 70.7188,2.82813 C71.4271,2.82813 71.9844,3.01563 72.3906,3.39063 C72.7969,3.76563 73,4.27604 73,4.92188 C73,5.39063 72.8854,5.77604 72.6563,6.07813 C72.4167,6.39063 72.1354,6.60938 71.8125,6.73438 C72.2083,6.85938 72.5313,7.09375 72.7813,7.4375 C73.0417,7.79167 73.1719,8.22917 73.1719,8.75 C73.1719,9.52083 72.9635,10.1146 72.5469,10.5313 C72.1198,10.9479 71.5104,11.1563 70.7188,11.1563 C69.9271,11.1563 69.3177,10.9479 68.8906,10.5313 C68.4635,10.1146 68.25,9.52083 68.25,8.75 C68.25,8.22917 68.3802,7.79167 68.6406,7.4375 C68.9323,7.08333 69.2604,6.84896 69.625,6.73438 M69.4297,3.71094 C69.1224,3.9974 68.9688,4.40104 68.9688,4.92188 C68.9688,5.44271 69.1224,5.84896 69.4297,6.14063 C69.737,6.43229 70.1667,6.57813 70.7188,6.57813 C71.2604,6.57813 71.6875,6.43229 72,6.14063 C72.3125,5.84896 72.4688,5.44271 72.4688,4.92188 C72.4688,4.40104 72.3125,4 72,3.71875 C71.6875,3.42708 71.2604,3.28125 70.7188,3.28125 C70.1667,3.28125 69.737,3.42448 69.4297,3.71094 M77.6719,3.28125 C77.0156,3.28125 76.526,3.59896 76.2031,4.23438 C75.8906,4.86979 75.7344,5.78906 75.7344,6.99219 C75.7344,8.19531 75.8906,9.11979 76.2031,9.76563 C76.526,10.401 77.0156,10.7188 77.6719,10.7188 C78.349,10.7188 78.8438,10.401 79.1563,9.76563 C79.4792,9.11979 79.6406,8.19531 79.6406,6.99219 C79.6406,5.78906 79.4792,4.86979 79.1563,4.23438 C78.8438,3.59896 78.349,3.28125 77.6719,3.28125 M77.6719,2.82813 C78.4427,2.82813 79.0521,3.14583 79.5,3.78125 C79.9583,4.41667 80.1875,5.48958 80.1875,7 C80.1875,8.51042 79.9583,9.58333 79.5,10.2188 C79.0521,10.8438 78.4427,11.1563 77.6719,11.1563 C76.9219,11.1563 76.3177,10.8438 75.8594,10.2188 C75.4115,9.58333 75.1875,8.51042 75.1875,7 C75.1875,5.48958 75.4115,4.41667 75.8594,3.78125 C76.3177,3.14583 76.9219,2.82813 77.6719,2.82813 M82.5938,2.98438 L86.3906,2.98438 L86.3906,3.42188 L83.125,3.42188 L83.125,6.10938 C83.2917,6.04688 83.4531,6 83.6094,5.96875 C83.7656,5.9375 83.9948,5.92188 84.2969,5.92188 C85.1198,5.92188 85.7708,6.15104 86.25,6.60938 C86.7292,7.05729 86.9688,7.66146 86.9688,8.42188 C86.9688,9.28646 86.7188,9.95833 86.2188,10.4375 C85.7292,10.9167 85.0365,11.1563 84.1406,11.1563 C83.849,11.1563 83.5469,11.1302 83.2344,11.0781 C82.9219,11.026 82.599,10.9531 82.2656,10.8594 L82.2656,10.3125 C82.5469,10.4375 82.8385,10.5365 83.1406,10.6094 C83.4427,10.6719 83.7604,10.7031 84.0938,10.7031 C84.8021,10.7031 85.3698,10.5 85.7969,10.0938 C86.224,9.6875 86.4375,9.13021 86.4375,8.42188 C86.4375,7.78646 86.2292,7.28646 85.8125,6.92188 C85.3958,6.54688 84.8333,6.35938 84.125,6.35938 C83.9792,6.35938 83.7604,6.40104 83.4688,6.48438 C83.1875,6.55729 82.8958,6.67708 82.5938,6.84375 L82.5938,2.98438 M93.7813,13.1719 L93.7813,13.5938 L88.0625,13.5938 L88.0625,13.1719 L93.7813,13.1719 M95.3125,10.5625 L97.0781,10.5625 L97.0781,3.46875 L94.875,4.35938 L94.875,3.85938 L97.0625,2.98438 L97.6094,2.98438 L97.6094,10.5625 L99.3906,10.5625 L99.3906,11 L95.3125,11 L95.3125,10.5625 M105.641,6.92969 C105.307,6.53906 104.857,6.34375 104.289,6.34375 C103.721,6.34375 103.271,6.53906 102.938,6.92969 C102.604,7.32031 102.438,7.85417 102.438,8.53125 C102.438,9.20833 102.604,9.74219 102.938,10.1328 C103.271,10.5234 103.721,10.7188 104.289,10.7188 C104.857,10.7188 105.307,10.5234 105.641,10.1328 C105.974,9.74219 106.141,9.20833 106.141,8.53125 C106.141,7.85417 105.974,7.32031 105.641,6.92969 M106.297,3.15625 L106.297,3.73438 C106.047,3.57813 105.792,3.46354 105.531,3.39063 C105.281,3.30729 105.031,3.26563 104.781,3.26563 C103.719,3.26563 102.974,3.79167 102.547,4.84375 C102.349,5.3125 102.26,6.11979 102.281,7.26563 C102.458,6.86979 102.688,6.5625 102.969,6.34375 C103.333,6.05208 103.797,5.90625 104.359,5.90625 C105.026,5.90625 105.583,6.14063 106.031,6.60938 C106.479,7.08854 106.703,7.69271 106.703,8.42188 C106.703,9.24479 106.484,9.90625 106.047,10.4063 C105.609,10.9063 105.036,11.1563 104.328,11.1563 C103.484,11.1563 102.839,10.8021 102.391,10.0938 C101.943,9.375 101.719,8.34375 101.719,7 C101.719,5.5625 101.995,4.50521 102.547,3.82813 C103.089,3.16146 103.823,2.82813 104.75,2.82813 C105,2.82813 105.25,2.85938 105.5,2.92188 C105.75,2.97396 106.016,3.05208 106.297,3.15625 M109.281,10.5625 L111.047,10.5625 L111.047,3.46875 L108.844,4.35938 L108.844,3.85938 L111.031,2.98438 L111.578,2.98438 L111.578,10.5625 L113.359,10.5625 L113.359,11 L109.281,11 L109.281,10.5625 M119.094,6.67188 C119.521,6.77604 119.859,7.01042 120.109,7.375 C120.349,7.71875 120.469,8.15104 120.469,8.67188 C120.469,9.46354 120.242,10.0755 119.789,10.5078 C119.336,10.9401 118.609,11.1563 117.609,11.1563 C117.266,11.1563 116.917,11.1042 116.563,11 C116.208,10.8958 115.844,10.7292 115.469,10.5 L115.469,9.92188 C115.771,10.1823 116.099,10.3802 116.453,10.5156 C116.807,10.651 117.172,10.7188 117.547,10.7188 C118.318,10.7188 118.906,10.5417 119.313,10.1875 C119.719,9.84375 119.922,9.33854 119.922,8.67188 C119.922,8.13021 119.734,7.70313 119.359,7.39063 C118.984,7.08854 118.458,6.9375 117.781,6.9375 L116.844,6.9375 L116.844,6.48438 L117.828,6.48438 C118.443,6.48438 118.917,6.35938 119.25,6.10938 C119.573,5.85938 119.734,5.5 119.734,5.03125 C119.734,4.46875 119.568,4.03646 119.234,3.73438 C118.891,3.43229 118.406,3.28125 117.781,3.28125 C117.49,3.28125 117.172,3.33333 116.828,3.4375 C116.484,3.54167 116.109,3.70313 115.703,3.92188 L115.703,3.375 C116.12,3.19792 116.505,3.06771 116.859,2.98438 C117.224,2.89063 117.563,2.83854 117.875,2.82813 C118.698,2.82813 119.307,3.01563 119.703,3.39063 C120.089,3.76563 120.281,4.27604 120.281,4.92188 C120.281,5.33854 120.177,5.70833 119.969,6.03125 C119.771,6.34375 119.479,6.55729 119.094,6.67188 M126.078,6.67188 C126.505,6.77604 126.844,7.01042 127.094,7.375 C127.333,7.71875 127.453,8.15104 127.453,8.67188 C127.453,9.46354 127.227,10.0755 126.773,10.5078 C126.32,10.9401 125.594,11.1563 124.594,11.1563 C124.25,11.1563 123.901,11.1042 123.547,11 C123.193,10.8958 122.828,10.7292 122.453,10.5 L122.453,9.92188 C122.755,10.1823 123.083,10.3802 123.438,10.5156 C123.792,10.651 124.156,10.7188 124.531,10.7188 C125.302,10.7188 125.891,10.5417 126.297,10.1875 C126.703,9.84375 126.906,9.33854 126.906,8.67188 C126.906,8.13021 126.719,7.70313 126.344,7.39063 C125.969,7.08854 125.443,6.9375 124.766,6.9375 L123.828,6.9375 L123.828,6.48438 L124.813,6.48438 C125.427,6.48438 125.901,6.35938 126.234,6.10938 C126.557,5.85938 126.719,5.5 126.719,5.03125 C126.719,4.46875 126.552,4.03646 126.219,3.73438 C125.875,3.43229 125.391,3.28125 124.766,3.28125 C124.474,3.28125 124.156,3.33333 123.813,3.4375 C123.469,3.54167 123.094,3.70313 122.688,3.92188 L122.688,3.375 C123.104,3.19792 123.49,3.06771 123.844,2.98438 C124.208,2.89063 124.547,2.83854 124.859,2.82813 C125.682,2.82813 126.292,3.01563 126.688,3.39063 C127.073,3.76563 127.266,4.27604 127.266,4.92188 C127.266,5.33854 127.161,5.70833 126.953,6.03125 C126.755,6.34375 126.464,6.55729 126.078,6.67188 M130.078,10.8281 L130.078,10.2656 C130.328,10.4115 130.578,10.526 130.828,10.6094 C131.078,10.6823 131.328,10.7188 131.578,10.7188 C132.641,10.7188 133.385,10.1979 133.813,9.15625 C134.01,8.67708 134.099,7.86979 134.078,6.73438 C133.901,7.13021 133.672,7.4375 133.391,7.65625 C133.026,7.94792 132.568,8.09375 132.016,8.09375 C131.339,8.09375 130.776,7.85417 130.328,7.375 C129.88,6.90625 129.656,6.30208 129.656,5.5625 C129.656,4.73958 129.875,4.07813 130.313,3.57813 C130.76,3.07813 131.333,2.82813 132.031,2.82813 C132.875,2.82813 133.521,3.1875 133.969,3.90625 C134.417,4.61458 134.641,5.64583 134.641,7 C134.641,8.4375 134.365,9.48958 133.813,10.1563 C133.271,10.8229 132.536,11.1563 131.609,11.1563 C131.359,11.1563 131.109,11.1302 130.859,11.0781 C130.609,11.026 130.349,10.9427 130.078,10.8281 M130.719,7.05469 C131.052,7.44531 131.503,7.64063 132.07,7.64063 C132.638,7.64063 133.089,7.44531 133.422,7.05469 C133.755,6.66406 133.922,6.13021 133.922,5.45313 C133.922,4.77604 133.755,4.24219 133.422,3.85156 C133.089,3.46094 132.638,3.26563 132.07,3.26563 C131.503,3.26563 131.052,3.46094 130.719,3.85156 C130.385,4.24219 130.219,4.77604 130.219,5.45313 C130.219,6.13021 130.385,6.66406 130.719,7.05469 M140,3.28125 L136.672,8.4375 L140,8.4375 L140,3.28125 M139.578,2.98438 L140.547,2.98438 L140.547,8.4375 L141.703,8.4375 L141.703,8.875 L140.547,8.875 L140.547,11 L140,11 L140,8.875 L136.109,8.875 L136.109,8.3125 L139.578,2.98438 M144.047,10.8281 L144.047,10.2656 C144.297,10.4115 144.547,10.526 144.797,10.6094 C145.047,10.6823 145.297,10.7188 145.547,10.7188 C146.609,10.7188 147.354,10.1979 147.781,9.15625 C147.979,8.67708 148.068,7.86979 148.047,6.73438 C147.87,7.13021 147.641,7.4375 147.359,7.65625 C146.995,7.94792 146.536,8.09375 145.984,8.09375 C145.307,8.09375 144.745,7.85417 144.297,7.375 C143.849,6.90625 143.625,6.30208 143.625,5.5625 C143.625,4.73958 143.844,4.07813 144.281,3.57813 C144.729,3.07813 145.302,2.82813 146,2.82813 C146.844,2.82813 147.49,3.1875 147.938,3.90625 C148.385,4.61458 148.609,5.64583 148.609,7 C148.609,8.4375 148.333,9.48958 147.781,10.1563 C147.24,10.8229 146.505,11.1563 145.578,11.1563 C145.328,11.1563 145.078,11.1302 144.828,11.0781 C144.578,11.026 144.318,10.9427 144.047,10.8281 M144.688,7.05469 C145.021,7.44531 145.471,7.64063 146.039,7.64063 C146.607,7.64063 147.057,7.44531 147.391,7.05469 C147.724,6.66406 147.891,6.13021 147.891,5.45313 C147.891,4.77604 147.724,4.24219 147.391,3.85156 C147.057,3.46094 146.607,3.26563 146.039,3.26563 C145.471,3.26563 145.021,3.46094 144.688,3.85156 C144.354,4.24219 144.188,4.77604 144.188,5.45313 C144.188,6.13021 144.354,6.66406 144.688,7.05469 M151.188,10.5625 L152.953,10.5625 L152.953,3.46875 L150.75,4.35938 L150.75,3.85938 L152.938,2.98438 L153.484,2.98438 L153.484,10.5625 L155.266,10.5625 L155.266,11 L151.188,11 L151.188,10.5625 M157.938,2.98438 L161.734,2.98438 L161.734,3.42188 L158.469,3.42188 L158.469,6.10938 C158.635,6.04688 158.797,6 158.953,5.96875 C159.109,5.9375 159.339,5.92188 159.641,5.92188 C160.464,5.92188 161.115,6.15104 161.594,6.60938 C162.073,7.05729 162.313,7.66146 162.313,8.42188 C162.313,9.28646 162.063,9.95833 161.563,10.4375 C161.073,10.9167 160.38,11.1563 159.484,11.1563 C159.193,11.1563 158.891,11.1302 158.578,11.0781 C158.266,11.026 157.943,10.9531 157.609,10.8594 L157.609,10.3125 C157.891,10.4375 158.182,10.5365 158.484,10.6094 C158.786,10.6719 159.104,10.7031 159.438,10.7031 C160.146,10.7031 160.714,10.5 161.141,10.0938 C161.568,9.6875 161.781,9.13021 161.781,8.42188 C161.781,7.78646 161.573,7.28646 161.156,6.92188 C160.74,6.54688 160.177,6.35938 159.469,6.35938 C159.323,6.35938 159.104,6.40104 158.813,6.48438 C158.531,6.55729 158.24,6.67708 157.938,6.84375 L157.938,2.98438 M167.984,6.67188 C168.411,6.77604 168.75,7.01042 169,7.375 C169.24,7.71875 169.359,8.15104 169.359,8.67188 C169.359,9.46354 169.133,10.0755 168.68,10.5078 C168.227,10.9401 167.5,11.1563 166.5,11.1563 C166.156,11.1563 165.807,11.1042 165.453,11 C165.099,10.8958 164.734,10.7292 164.359,10.5 L164.359,9.92188 C164.661,10.1823 164.99,10.3802 165.344,10.5156 C165.698,10.651 166.063,10.7188 166.438,10.7188 C167.208,10.7188 167.797,10.5417 168.203,10.1875 C168.609,9.84375 168.813,9.33854 168.813,8.67188 C168.813,8.13021 168.625,7.70313 168.25,7.39063 C167.875,7.08854 167.349,6.9375 166.672,6.9375 L165.734,6.9375 L165.734,6.48438 L166.719,6.48438 C167.333,6.48438 167.807,6.35938 168.141,6.10938 C168.464,5.85938 168.625,5.5 168.625,5.03125 C168.625,4.46875 168.458,4.03646 168.125,3.73438 C167.781,3.43229 167.297,3.28125 166.672,3.28125 C166.38,3.28125 166.063,3.33333 165.719,3.4375 C165.375,3.54167 165,3.70313 164.594,3.92188 L164.594,3.375 C165.01,3.19792 165.396,3.06771 165.75,2.98438 C166.115,2.89063 166.453,2.83854 166.766,2.82813 C167.589,2.82813 168.198,3.01563 168.594,3.39063 C168.979,3.76563 169.172,4.27604 169.172,4.92188 C169.172,5.33854 169.068,5.70833 168.859,6.03125 C168.661,6.34375 168.37,6.55729 167.984,6.67188 M171.406,2.98438 L176.281,2.98438 L176.281,3.4375 L173.375,11 L172.797,11 L175.719,3.42188 L171.406,3.42188 L171.406,2.98438 M178.969,10.8281 L178.969,10.2656 C179.219,10.4115 179.469,10.526 179.719,10.6094 C179.969,10.6823 180.219,10.7188 180.469,10.7188 C181.531,10.7188 182.276,10.1979 182.703,9.15625 C182.901,8.67708 182.99,7.86979 182.969,6.73438 C182.792,7.13021 182.563,7.4375 182.281,7.65625 C181.917,7.94792 181.458,8.09375 180.906,8.09375 C180.229,8.09375 179.667,7.85417 179.219,7.375 C178.771,6.90625 178.547,6.30208 178.547,5.5625 C178.547,4.73958 178.766,4.07813 179.203,3.57813 C179.651,3.07813 180.224,2.82813 180.922,2.82813 C181.766,2.82813 182.411,3.1875 182.859,3.90625 C183.307,4.61458 183.531,5.64583 183.531,7 C183.531,8.4375 183.255,9.48958 182.703,10.1563 C182.161,10.8229 181.427,11.1563 180.5,11.1563 C180.25,11.1563 180,11.1302 179.75,11.0781 C179.5,11.026 179.24,10.9427 178.969,10.8281 M179.609,7.05469 C179.943,7.44531 180.393,7.64063 180.961,7.64063 C181.529,7.64063 181.979,7.44531 182.313,7.05469 C182.646,6.66406 182.813,6.13021 182.813,5.45313 C182.813,4.77604 182.646,4.24219 182.313,3.85156 C181.979,3.46094 181.529,3.26563 180.961,3.26563 C180.393,3.26563 179.943,3.46094 179.609,3.85156 C179.276,4.24219 179.109,4.77604 179.109,5.45313 C179.109,6.13021 179.276,6.66406 179.609,7.05469 "/>
</g>

<g fill="none" stroke="#000000" stroke-opacity="1" stroke-width="1" stroke-linecap="square" stroke-linejoin="bevel" transform="matrix(2,0,0,2,145.702,130)"
font-family="sans" font-size="11" font-weight="100" font-style="normal" 
>
</g>

<g fill="none" stroke="#000000" stroke-opacity="1" stroke-width="1" stroke-linecap="square" stroke-linejoin="bevel" transform="matrix(2,0,0,2,145.702,130)"
font-family="Sans Serif" font-size="9" font-weight="400" font-style="normal" 
>
</g>

<g fill="none" stroke="#000000" stroke-opacity="1" stroke-width="1" stroke-linecap="square" stroke-linejoin="bevel" transform="matrix(2,0,0,2,-0.0096,180)"
font-family="Sans Serif" font-size="9" font-weight="400" font-style="normal" 
>
</g>

<g fill="none" stroke="#000000" stroke-opacity="1" stroke-width="1" stroke-linecap="square" stroke-linejoin="bevel" transform="matrix(2,0,0,2,-0.0096,180)"
font-family="Sans Serif" font-size="9" font-weight="400" font-style="normal" 
>
</g>

<g fill="none" stroke="#000000" stroke-opacity="1" stroke-width="1" stroke-linecap="square" stroke-linejoin="bevel" transform="matrix(2,0,0,2,-0.0096,180)"
font-family="Sans Serif" font-size="9" font-weight="400" font-style="normal" 
>
</g>

<g fill="none" stroke="#000000" stroke-opacity="1" stroke-width="1" stroke-linecap="square" stroke-linejoin="round" transform="matrix(2,0,0,2,-0.0096,180)"
font-family="Sans Serif" font-size="9" font-weight="400" font-style="normal" 
>
<path vector-effect="none" fill-rule="evenodd" d="M444.58,-62.934 C452.29,-61.518 460.41,-60.029 468.53,-58.54 "/>
</g>

<g fill="none" stroke="#000000" stroke-opacity="1" stroke-width="1" stroke-linecap="square" stroke-linejoin="bevel" transform="matrix(2,0,0,2,-0.0096,180)"
font-family="Sans Serif" font-size="9" font-weight="400" font-style="normal" 
>
</g>

<g fill="none" stroke="#000000" stroke-opacity="1" stroke-width="1" stroke-linecap="square" stroke-linejoin="bevel" transform="matrix(2,0,0,2,-0.0096,180)"
font-family="Sans Serif" font-size="9" font-weight="400" font-style="normal" 
>
</g>

<g fill="#000000" fill-opacity="1" stroke="#000000" stroke-opacity="1" stroke-width="1" stroke-linecap="square" stroke-linejoin="round" transform="matrix(2,0,0,2,-0.0096,180)"
font-family="Sans Serif" font-size="9" font-weight="400" font-style="normal" 
>
<path vector-effect="none" fill-rule="evenodd" d="M468.53,-58.54 L467.895,-55.0855 L478.4,-56.727 L469.165,-61.9945 L468.53,-58.54"/>
</g>

<g fill="none" stroke="#000000" stroke-opacity="1" stroke-width="1" stroke-linecap="square" stroke-linejoin="bevel" transform="matrix(2,0,0,2,-0.0096,180)"
font-family="Sans Serif" font-size="9" font-weight="400" font-style="normal" 
>
</g>

<g fill="none" stroke="#000000" stroke-opacity="1" stroke-width="1" stroke-linecap="square" stroke-linejoin="bevel" transform="matrix(2,0,0,2,-0.0096,180)"
font-family="Sans Serif" font-size="9" font-weight="400" font-style="normal" 
>
</g>

<g fill="none" stroke="#000000" stroke-opacity="1" stroke-width="1" stroke-linecap="square" stroke-linejoin="bevel" transform="matrix(2,0,0,2,-0.0096,180)"
font-family="Sans Serif" font-size="9" font-weight="400" font-style="normal" 
>
</g>

<g fill="none" stroke="#000000" stroke-opacity="1" stroke-width="1" stroke-linecap="square" stroke-linejoin="bevel" transform="matrix(2,0,0,2,-0.0096,180)"
font-family="Sans Serif" font-size="9" font-weight="400" font-style="normal" 
>
</g>

<g fill="none" stroke="#000000" stroke-opacity="1" stroke-width="1" stroke-linecap="square" stroke-linejoin="round" transform="matrix(2,0,0,2,-0.0096,180)"
font-family="Sans Serif" font-size="9" font-weight="400" font-style="normal" 
>
<path vector-effect="none" fill-rule="evenodd" d="M426.38,-23.726 C438.71,-25.99 453.46,-28.696 468.24,-31.408 "/>
</g>

<g fill="none" stroke="#000000" stroke-opacity="1" stroke-width="1" stroke-linecap="square" stroke-linejoin="bevel" transform="matrix(2,0,0,2,-0.0096,180)"
font-family="Sans Serif" font-size="9" font-weight="400" font-style="normal" 
>
</g>

<g fill="none" stroke="#000000" stroke-opacity="1" stroke-width="1" stroke-linecap="square" stroke-linejoin="bevel" transform="matrix(2,0,0,2,-0.0096,180)"
font-family="Sans Serif" font-size="9" font-weight="400" font-style="normal" 
>
</g>

<g fill="#000000" fill-opacity="1" stroke="#000000" stroke-opacity="1" stroke-width="1" stroke-linecap="square" stroke-linejoin="round" transform="matrix(2,0,0,2,-0.0096,180)"
font-family="Sans Serif" font-size="9" font-weight="400" font-style="normal" 
>
<path vector-effect="none" fill-rule="evenodd" d="M468.24,-31.408 L468.895,-27.838 L478.44,-33.28 L467.585,-34.978 L468.24,-31.408"/>
</g>

<g fill="none" stroke="#000000" stroke-opacity="1" stroke-width="1" stroke-linecap="square" stroke-linejoin="bevel" transform="matrix(2,0,0,2,-0.0096,180)"
font-family="Sans Serif" font-size="9" font-weight="400" font-style="normal" 
>
</g>

<g fill="none" stroke="#000000" stroke-opacity="1" stroke-width="1" stroke-linecap="square" stroke-linejoin="bevel" transform="matrix(2,0,0,2,-0.0096,180)"
font-family="Sans Serif" font-size="9" font-weight="400" font-style="normal" 
>
</g>

<g fill="none" stroke="#000000" stroke-opacity="1" stroke-width="1" stroke-linecap="square" stroke-linejoin="bevel" transform="matrix(2,0,0,2,-0.0096,180)"
font-family="Sans Serif" font-size="9" font-weight="400" font-style="normal" 
>
</g>

<g fill="none" stroke="#000000" stroke-opacity="1" stroke-width="1" stroke-linecap="square" stroke-linejoin="bevel" transform="matrix(2,0,0,2,-0.0096,180)"
font-family="Sans Serif" font-size="9" font-weight="400" font-style="normal" 
>
</g>

<g fill="none" stroke="#000000" stroke-opacity="1" stroke-width="1" stroke-linecap="square" stroke-linejoin="round" transform="matrix(2,0,0,2,-0.0096,180)"
font-family="Sans Serif" font-size="9" font-weight="400" font-style="normal" 
>
<path vector-effect="none" fill-rule="evenodd" d="M609.07,-56.607 C617.58,-58.131 626.26,-59.688 634.69,-61.198 "/>
</g>

<g fill="none" stroke="#000000" stroke-opacity="1" stroke-width="1" stroke-linecap="square" stroke-linejoin="bevel" transform="matrix(2,0,0,2,-0.0096,180)"
font-family="Sans Serif" font-size="9" font-weight="400" font-style="normal" 
>
</g>

<g fill="none" stroke="#000000" stroke-opacity="1" stroke-width="1" stroke-linecap="square" stroke-linejoin="bevel" transform="matrix(2,0,0,2,-0.0096,180)"
font-family="Sans Serif" font-size="9" font-weight="400" font-style="normal" 
>
</g>

<g fill="#000000" fill-opacity="1" stroke="#000000" stroke-opacity="1" stroke-width="1" stroke-linecap="square" stroke-linejoin="round" transform="matrix(2,0,0,2,-0.0096,180)"
font-family="Sans Serif" font-size="9" font-weight="400" font-style="normal" 
>
<path vector-effect="none" fill-rule="evenodd" d="M634.69,-61.198 L635.325,-57.656 L644.81,-63.012 L634.055,-64.74 L634.69,-61.198"/>
</g>

<g fill="none" stroke="#000000" stroke-opacity="1" stroke-width="1" stroke-linecap="square" stroke-linejoin="bevel" transform="matrix(2,0,0,2,-0.0096,180)"
font-family="Sans Serif" font-size="9" font-weight="400" font-style="normal" 
>
</g>

<g fill="none" stroke="#000000" stroke-opacity="1" stroke-width="1" stroke-linecap="square" stroke-linejoin="bevel" transform="matrix(2,0,0,2,-0.0096,180)"
font-family="Sans Serif" font-size="9" font-weight="400" font-style="normal" 
>
</g>

<g fill="none" stroke="#000000" stroke-opacity="1" stroke-width="1" stroke-linecap="square" stroke-linejoin="bevel" transform="matrix(2,0,0,2,-0.0096,180)"
font-family="Sans Serif" font-size="9" font-weight="400" font-style="normal" 
>
</g>

<g fill="none" stroke="#000000" stroke-opacity="1" stroke-width="1" stroke-linecap="square" stroke-linejoin="bevel" transform="matrix(2,0,0,2,-0.0096,180)"
font-family="Sans Serif" font-size="9" font-weight="400" font-style="normal" 
>
</g>

<g fill="none" stroke="#000000" stroke-opacity="1" stroke-width="1" stroke-linecap="square" stroke-linejoin="round" transform="matrix(2,0,0,2,-0.0096,180)"
font-family="Sans Serif" font-size="9" font-weight="400" font-style="normal" 
>
<path vector-effect="none" fill-rule="evenodd" d="M609.07,-33.393 C616.73,-32.021 624.53,-30.623 632.15,-29.257 "/>
</g>

<g fill="none" stroke="#000000" stroke-opacity="1" stroke-width="1" stroke-linecap="square" stroke-linejoin="bevel" transform="matrix(2,0,0,2,-0.0096,180)"
font-family="Sans Serif" font-size="9" font-weight="400" font-style="normal" 
>
</g>

<g fill="none" stroke="#000000" stroke-opacity="1" stroke-width="1" stroke-linecap="square" stroke-linejoin="bevel" transform="matrix(2,0,0,2,-0.0096,180)"
font-family="Sans Serif" font-size="9" font-weight="400" font-style="normal" 
>
</g>

<g fill="#000000" fill-opacity="1" stroke="#000000" stroke-opacity="1" stroke-width="1" stroke-linecap="square" stroke-linejoin="round" transform="matrix(2,0,0,2,-0.0096,180)"
font-family="Sans Serif" font-size="9" font-weight="400" font-style="normal" 
>
<path vector-effect="none" fill-rule="evenodd" d="M632.15,-29.257 L631.529,-25.7955 L642.04,-27.484 L632.771,-32.7185 L632.15,-29.257"/>
</g>

<g fill="none" stroke="#000000" stroke-opacity="1" stroke-width="1" stroke-linecap="square" stroke-linejoin="bevel" transform="matrix(2,0,0,2,-0.0096,180)"
font-family="Sans Serif" font-size="9" font-weight="400" font-style="normal" 
>
</g>

<g fill="none" stroke="#000000" stroke-opacity="1" stroke-width="1" stroke-linecap="square" stroke-linejoin="bevel" transform="matrix(2,0,0,2,-0.0096,180)"
font-family="Sans Serif" font-size="9" font-weight="400" font-style="normal" 
>
</g>

<g fill="none" stroke="#000000" stroke-opacity="1" stroke-width="1" stroke-linecap="square" stroke-linejoin="bevel" transform="matrix(2,0,0,2,-0.0096,180)"
font-family="Sans Serif" font-size="9" font-weight="400" font-style="normal" 
>
</g>

<g fill="none" stroke="#000000" stroke-opacity="1" stroke-width="1" stroke-linecap="square" stroke-linejoin="bevel" transform="matrix(2,0,0,2,-0.0096,180)"
font-family="Sans Serif" font-size="9" font-weight="400" font-style="normal" 
>
</g>

<g fill="none" stroke="#000000" stroke-opacity="1" stroke-width="1" stroke-linecap="square" stroke-linejoin="round" transform="matrix(2,0,0,2,-0.0096,180)"
font-family="Sans Serif" font-size="9" font-weight="400" font-style="normal" 
>
<path vector-effect="none" fill-rule="evenodd" d="M330.22,-18 C337.9,-18 345.19,-18 351.9,-18 "/>
</g>

<g fill="none" stroke="#000000" stroke-opacity="1" stroke-width="1" stroke-linecap="square" stroke-linejoin="bevel" transform="matrix(2,0,0,2,-0.0096,180)"
font-family="Sans Serif" font-size="9" font-weight="400" font-style="normal" 
>
</g>

<g fill="none" stroke="#000000" stroke-opacity="1" stroke-width="1" stroke-linecap="square" stroke-linejoin="bevel" transform="matrix(2,0,0,2,-0.0096,180)"
font-family="Sans Serif" font-size="9" font-weight="400" font-style="normal" 
>
</g>

<g fill="#000000" fill-opacity="1" stroke="#000000" stroke-opacity="1" stroke-width="1" stroke-linecap="square" stroke-linejoin="round" transform="matrix(2,0,0,2,-0.0096,180)"
font-family="Sans Serif" font-size="9" font-weight="400" font-style="normal" 
>
<path vector-effect="none" fill-rule="evenodd" d="M351.9,-18 L351.9,-14.4825 L361.95,-18 L351.9,-21.5175 L351.9,-18"/>
</g>

<g fill="none" stroke="#000000" stroke-opacity="1" stroke-width="1" stroke-linecap="square" stroke-linejoin="bevel" transform="matrix(2,0,0,2,-0.0096,180)"
font-family="Sans Serif" font-size="9" font-weight="400" font-style="normal" 
>
</g>

<g fill="none" stroke="#000000" stroke-opacity="1" stroke-width="1" stroke-linecap="square" stroke-linejoin="bevel" transform="matrix(1,0,0,1,0,0)"
font-family="Sans Serif" font-size="9" font-weight="400" font-style="normal" 
>
</g>
</g>
</svg>
